<mxfile host="Electron" modified="2024-07-16T20:47:46.514Z" agent="Mozilla/5.0 (X11; Linux x86_64) AppleWebKit/537.36 (KHTML, like Gecko) draw.io/24.5.3 Chrome/124.0.6367.207 Electron/30.0.6 Safari/537.36" etag="iJulJ7R_r4m0HbIikxU6" version="24.5.3" type="device">
  <diagram id="f106602c-feb2-e66a-4537-3a34d633f6aa" name="Page-1">
    <mxGraphModel dx="1971" dy="1243" grid="1" gridSize="10" guides="1" tooltips="1" connect="1" arrows="1" fold="1" page="1" pageScale="1" pageWidth="1169" pageHeight="827" background="none" math="0" shadow="0">
      <root>
        <mxCell id="0" />
        <mxCell id="1" parent="0" />
        <mxCell id="QePtxtIfvmYU2IRXPI9a-740" value="" style="rounded=1;absoluteArcSize=1;arcSize=2;html=1;shadow=0;dashed=0;strokeColor=none;fontSize=12;align=left;verticalAlign=top;spacing=10;spacingTop=-4;" vertex="1" parent="1">
          <mxGeometry y="15" width="1160" height="550" as="geometry" />
        </mxCell>
        <mxCell id="QePtxtIfvmYU2IRXPI9a-738" value="&lt;font color=&quot;#9e9e9e&quot;&gt;Transformação, documentação&lt;/font&gt;" style="rounded=1;absoluteArcSize=1;arcSize=2;html=1;strokeColor=#b85450;shadow=0;dashed=0;strokeColor=none;fontSize=12;align=left;verticalAlign=top;spacing=10;spacingTop=-4;fillColor=#f8cecc;" vertex="1" parent="1">
          <mxGeometry x="720" y="420" width="210" height="110" as="geometry" />
        </mxCell>
        <mxCell id="QePtxtIfvmYU2IRXPI9a-722" value="&lt;font color=&quot;#9e9e9e&quot;&gt;Orquestração&lt;/font&gt;" style="rounded=1;absoluteArcSize=1;arcSize=2;html=1;strokeColor=#6c8ebf;shadow=0;dashed=0;strokeColor=none;fontSize=12;align=left;verticalAlign=top;spacing=10;spacingTop=-4;fillColor=#dae8fc;" vertex="1" parent="1">
          <mxGeometry x="270" y="220" width="210" height="110" as="geometry" />
        </mxCell>
        <mxCell id="14" value="&lt;b&gt;Google &lt;/b&gt;Cloud Platform" style="fillColor=#F6F6F6;strokeColor=none;shadow=0;gradientColor=none;fontSize=14;align=left;spacing=10;fontColor=#717171;9E9E9E;verticalAlign=top;spacingTop=-4;fontStyle=0;spacingLeft=40;html=1;container=0;" parent="1" vertex="1">
          <mxGeometry x="510" y="160" width="430" height="220" as="geometry" />
        </mxCell>
        <mxCell id="711" value="Datalake" style="rounded=1;absoluteArcSize=1;arcSize=2;html=1;strokeColor=none;gradientColor=none;shadow=0;dashed=0;strokeColor=none;fontSize=12;fontColor=#9E9E9E;align=left;verticalAlign=top;spacing=10;spacingTop=-4;fillColor=#E1F5FE;" parent="1" vertex="1">
          <mxGeometry x="545" y="220" width="370" height="120" as="geometry" />
        </mxCell>
        <mxCell id="705" value="Sistemas" style="rounded=1;absoluteArcSize=1;arcSize=2;html=1;strokeColor=none;gradientColor=none;shadow=0;dashed=0;strokeColor=none;fontSize=12;fontColor=#9E9E9E;align=left;verticalAlign=top;spacing=10;spacingTop=-4;fillColor=#FFF8E1;" parent="1" vertex="1">
          <mxGeometry x="30" y="170" width="155" height="100" as="geometry" />
        </mxCell>
        <mxCell id="713" style="edgeStyle=orthogonalEdgeStyle;rounded=0;html=1;labelBackgroundColor=none;startFill=1;startSize=4;endArrow=blockThin;endFill=1;endSize=4;jettySize=auto;orthogonalLoop=1;strokeColor=#4284F3;strokeWidth=2;fontSize=12;fontColor=#000000;align=center;dashed=0;" parent="1" source="706" target="711" edge="1">
          <mxGeometry relative="1" as="geometry" />
        </mxCell>
        <mxCell id="706" value="Power BI" style="rounded=1;absoluteArcSize=1;arcSize=2;html=1;strokeColor=none;gradientColor=none;shadow=0;dashed=0;strokeColor=none;fontSize=12;fontColor=#9E9E9E;align=left;verticalAlign=top;spacing=10;spacingTop=-4;fillColor=#FFF8E1;" parent="1" vertex="1">
          <mxGeometry x="970" y="230" width="120" height="100" as="geometry" />
        </mxCell>
        <mxCell id="707" value="Dados" style="rounded=1;absoluteArcSize=1;arcSize=2;html=1;strokeColor=none;gradientColor=none;shadow=0;dashed=0;strokeColor=none;fontSize=12;fontColor=#9E9E9E;align=left;verticalAlign=top;spacing=10;spacingTop=-4;fillColor=#F1F8E9;" parent="1" vertex="1">
          <mxGeometry x="34" y="280" width="150" height="110" as="geometry" />
        </mxCell>
        <mxCell id="693" value="" style="strokeColor=#dddddd;fillColor=#ffffff;shadow=1;strokeWidth=1;rounded=1;absoluteArcSize=1;arcSize=2;fontSize=10;fontColor=#9E9E9E;align=center;html=1;" parent="1" vertex="1">
          <mxGeometry x="1000" y="260" width="60" height="60" as="geometry" />
        </mxCell>
        <mxCell id="694" value="" style="dashed=0;connectable=0;html=1;fillColor=#5184F3;strokeColor=none;shape=mxgraph.gcp2.google_analytics;part=1;labelPosition=right;verticalLabelPosition=middle;align=left;verticalAlign=middle;spacingLeft=5;fontColor=#999999;fontSize=12;" parent="693" vertex="1">
          <mxGeometry width="45" height="45" relative="1" as="geometry">
            <mxPoint x="5" y="7" as="offset" />
          </mxGeometry>
        </mxCell>
        <mxCell id="695" value="" style="strokeColor=#dddddd;fillColor=#ffffff;shadow=1;strokeWidth=1;rounded=1;absoluteArcSize=1;arcSize=2;labelPosition=center;verticalLabelPosition=middle;align=center;verticalAlign=bottom;spacingLeft=0;fontColor=#999999;fontSize=12;whiteSpace=wrap;spacingBottom=2;html=1;" parent="1" vertex="1">
          <mxGeometry x="75" y="310" width="60" height="67" as="geometry" />
        </mxCell>
        <mxCell id="696" value="" style="dashed=0;connectable=0;html=1;fillColor=#757575;strokeColor=none;shape=mxgraph.gcp2.list;part=1;" parent="695" vertex="1">
          <mxGeometry x="0.5" width="44.5" height="50" relative="1" as="geometry">
            <mxPoint x="-22.25" y="10" as="offset" />
          </mxGeometry>
        </mxCell>
        <mxCell id="715" style="edgeStyle=orthogonalEdgeStyle;rounded=0;html=1;labelBackgroundColor=none;startFill=1;startSize=4;endArrow=blockThin;endFill=1;endSize=4;jettySize=auto;orthogonalLoop=1;strokeColor=#4284F3;strokeWidth=2;fontSize=12;fontColor=#000000;align=center;dashed=0;entryX=0;entryY=0.5;entryDx=0;entryDy=0;" parent="1" source="bN5QILnUEAshqW3xWmmT-748" target="bN5QILnUEAshqW3xWmmT-754" edge="1">
          <mxGeometry relative="1" as="geometry">
            <mxPoint x="725" y="280" as="targetPoint" />
          </mxGeometry>
        </mxCell>
        <mxCell id="bN5QILnUEAshqW3xWmmT-748" value="" style="strokeColor=#dddddd;shadow=1;strokeWidth=1;rounded=1;absoluteArcSize=1;arcSize=2;" parent="1" vertex="1">
          <mxGeometry x="540" y="250" width="160" height="60" as="geometry" />
        </mxCell>
        <mxCell id="bN5QILnUEAshqW3xWmmT-749" value="&lt;font color=&quot;#000000&quot;&gt;Cloud Storage&lt;br&gt;(Medallion)&lt;/font&gt;" style="editableCssRules=.*;html=1;fontColor=#999999;shape=image;verticalLabelPosition=middle;verticalAlign=middle;labelPosition=right;align=left;spacingLeft=20;part=1;points=[];imageAspect=0;image=data:image/svg+xml,PHN2ZyB4bWxucz0iaHR0cDovL3d3dy53My5vcmcvMjAwMC9zdmciIHhtbG5zOnY9Imh0dHBzOi8vdmVjdGEuaW8vbmFubyIgd2lkdGg9IjIwIiBoZWlnaHQ9IjE2IiB2aWV3Qm94PSIwIDAgMjAgMTYiPiYjeGE7CTxzdHlsZSB0eXBlPSJ0ZXh0L2NzcyI+JiN4YTsJLnN0MHtmaWxsOiM0Mjg1ZjQ7fSYjeGE7CS5zdDF7ZmlsbDojNjY5ZGY2O30mI3hhOwkuc3Qye2ZpbGw6I2FlY2JmYTt9JiN4YTsJLnN0M3tmaWxsOiNmZmY7fSYjeGE7CTwvc3R5bGU+JiN4YTsJPHBhdGggY2xhc3M9InN0MiIgZD0iTTAgMGgyMHY3SDB6Ii8+JiN4YTsJPHBhdGggY2xhc3M9InN0MSIgZD0iTTE4IDBoMnY3aC0yeiIvPiYjeGE7CTxwYXRoIGNsYXNzPSJzdDAiIGQ9Ik0xOCA3bDItN2gtMnoiLz4mI3hhOwk8cGF0aCBjbGFzcz0ic3QxIiBkPSJNMCAwaDJ2N0gweiIvPiYjeGE7CTxnIGNsYXNzPSJzdDMiPiYjeGE7CQk8cGF0aCBkPSJNNCAzaDZ2MUg0eiIvPiYjeGE7CQk8cmVjdCB4PSIxMyIgeT0iMiIgd2lkdGg9IjMiIGhlaWdodD0iMyIgcng9IjEuNSIvPiYjeGE7CTwvZz4mI3hhOwk8cGF0aCBjbGFzcz0ic3QyIiBkPSJNMCA5aDIwdjdIMHoiLz4mI3hhOwk8cGF0aCBjbGFzcz0ic3QxIiBkPSJNMTggOWgydjdoLTJ6Ii8+JiN4YTsJPHBhdGggY2xhc3M9InN0MCIgZD0iTTE4IDE2bDItN2gtMnoiLz4mI3hhOwk8cGF0aCBjbGFzcz0ic3QxIiBkPSJNMCA5aDJ2N0gweiIvPiYjeGE7CTxnIGNsYXNzPSJzdDMiPiYjeGE7CQk8cGF0aCBkPSJNNCAxMmg2djFINHoiLz4mI3hhOwkJPHJlY3QgeD0iMTMiIHk9IjExIiB3aWR0aD0iMyIgaGVpZ2h0PSIzIiByeD0iMS41Ii8+JiN4YTsJPC9nPiYjeGE7PC9zdmc+;" parent="bN5QILnUEAshqW3xWmmT-748" vertex="1">
          <mxGeometry width="30" height="24" relative="1" as="geometry">
            <mxPoint x="15" y="18" as="offset" />
          </mxGeometry>
        </mxCell>
        <mxCell id="15" value="" style="shape=mxgraph.gcp2.google_cloud_platform;fillColor=#F6F6F6;strokeColor=none;shadow=0;gradientColor=none;" parent="1" vertex="1">
          <mxGeometry x="530" y="170" width="23" height="20" as="geometry">
            <mxPoint x="20" y="10" as="offset" />
          </mxGeometry>
        </mxCell>
        <mxCell id="bN5QILnUEAshqW3xWmmT-754" value="" style="strokeColor=#dddddd;shadow=1;strokeWidth=1;rounded=1;absoluteArcSize=1;arcSize=2;" parent="1" vertex="1">
          <mxGeometry x="730" y="250" width="160" height="60" as="geometry" />
        </mxCell>
        <mxCell id="bN5QILnUEAshqW3xWmmT-755" value="&lt;font color=&quot;#000000&quot;&gt;Reference Table&lt;/font&gt;&lt;br&gt;BigQuery" style="editableCssRules=.*;html=1;fontColor=#999999;shape=image;verticalLabelPosition=middle;verticalAlign=middle;labelPosition=right;align=left;spacingLeft=20;part=1;points=[];imageAspect=0;image=data:image/svg+xml,PHN2ZyB4bWxucz0iaHR0cDovL3d3dy53My5vcmcvMjAwMC9zdmciIHhtbG5zOnY9Imh0dHBzOi8vdmVjdGEuaW8vbmFubyIgd2lkdGg9IjIwLjAwMTA0NTIyNzA1MDc4IiBoZWlnaHQ9IjIwLjAwMTA0NTIyNzA1MDc4IiBmaWxsLXJ1bGU9ImV2ZW5vZGQiIHZpZXdCb3g9IjAgMCAyMC4wMDEwNDUyMjcwNTA3OCAyMC4wMDEwNDUyMjcwNTA3OCI+JiN4YTsJPHN0eWxlIHR5cGU9InRleHQvY3NzIj4mI3hhOwkuc3Qwe2ZpbGw6I2FlY2JmYTt9JiN4YTsJLnN0MXtmaWxsOiM2NjlkZjY7fSYjeGE7CS5zdDJ7ZmlsbDojNDI4NWY0O30mI3hhOwk8L3N0eWxlPiYjeGE7CTxwYXRoIGNsYXNzPSJzdDAiIGQ9Ik00LjczIDguODN2Mi42M2E0LjkxIDQuOTEgMCAwIDAgMS43MSAxLjc0VjguODN6Ii8+JiN4YTsJPHBhdGggY2xhc3M9InN0MSIgZD0iTTcuODkgNi40MXY3LjUzQTcuNjIgNy42MiAwIDAgMCA5IDE0YTggOCAwIDAgMCAxIDBWNi40MXoiLz4mI3hhOwk8cGF0aCBjbGFzcz0ic3QwIiBkPSJNMTEuNjQgOS44NnYzLjI5YTUgNSAwIDAgMCAxLjctMS44MlY5Ljg2eiIvPiYjeGE7CTxwYXRoIGNsYXNzPSJzdDIiIGQ9Ik0xNS43NCAxNC4zMmwtMS40MiAxLjQyYS40Mi40MiAwIDAgMCAwIC42bDMuNTQgMy41NGEuNDIuNDIgMCAwIDAgLjU5IDBsMS40My0xLjQzYS40Mi40MiAwIDAgMCAwLS41OWwtMy41NC0zLjU0YS40Mi40MiAwIDAgMC0uNiAwIi8+JiN4YTsJPHBhdGggY2xhc3M9InN0MSIgZD0iTTkgMGE5IDkgMCAxIDAgMCAxOEE5IDkgMCAxIDAgOSAwbTAgMTUuNjlhNi42OCA2LjY4IDAgMCAxIC4wMDctMTMuMzYgNi42OCA2LjY4IDAgMCAxIDQuNzI3IDExLjQwM0E2LjY4IDYuNjggMCAwIDEgOSAxNS42OSIvPiYjeGE7PC9zdmc+;" parent="bN5QILnUEAshqW3xWmmT-754" vertex="1">
          <mxGeometry width="30" height="30" relative="1" as="geometry">
            <mxPoint x="15" y="15" as="offset" />
          </mxGeometry>
        </mxCell>
        <mxCell id="QePtxtIfvmYU2IRXPI9a-719" value="" style="image;aspect=fixed;perimeter=ellipsePerimeter;html=1;align=center;shadow=0;dashed=0;spacingTop=3;image=img/lib/active_directory/web_server.svg;" vertex="1" parent="1">
          <mxGeometry x="80" y="210" width="40" height="50" as="geometry" />
        </mxCell>
        <mxCell id="QePtxtIfvmYU2IRXPI9a-731" style="edgeStyle=orthogonalEdgeStyle;rounded=0;orthogonalLoop=1;jettySize=auto;html=1;strokeColor=#4284F3;" edge="1" parent="1" source="QePtxtIfvmYU2IRXPI9a-721" target="707">
          <mxGeometry relative="1" as="geometry">
            <Array as="points">
              <mxPoint x="233" y="280" />
              <mxPoint x="233" y="335" />
            </Array>
          </mxGeometry>
        </mxCell>
        <mxCell id="QePtxtIfvmYU2IRXPI9a-733" style="edgeStyle=orthogonalEdgeStyle;rounded=0;orthogonalLoop=1;jettySize=auto;html=1;exitX=0;exitY=0.5;exitDx=0;exitDy=0;strokeColor=#4284F3;" edge="1" parent="1" source="QePtxtIfvmYU2IRXPI9a-721" target="705">
          <mxGeometry relative="1" as="geometry" />
        </mxCell>
        <mxCell id="QePtxtIfvmYU2IRXPI9a-736" style="edgeStyle=orthogonalEdgeStyle;rounded=0;orthogonalLoop=1;jettySize=auto;html=1;entryX=0;entryY=0.5;entryDx=0;entryDy=0;strokeColor=#4284F3;" edge="1" parent="1" source="QePtxtIfvmYU2IRXPI9a-721" target="bN5QILnUEAshqW3xWmmT-748">
          <mxGeometry relative="1" as="geometry">
            <mxPoint x="500" y="280" as="targetPoint" />
          </mxGeometry>
        </mxCell>
        <mxCell id="QePtxtIfvmYU2IRXPI9a-721" value="" style="shape=image;verticalLabelPosition=bottom;labelBackgroundColor=default;verticalAlign=top;aspect=fixed;imageAspect=0;image=data:image/png,iVBORw0KGgoAAAANSUhEUgAAAhAAAAC7CAIAAAC7JjDaAAAACXBIWXMAAA7EAAAOxAGVKw4bAAAgAElEQVR4nOydd5wW1fX/z7l3ytO3AMvuslSRrlRFkKaCil0TE2NNN/nGmJhYvibG9k1iiWj8mvYz3xgTYzRRY8MCdgEFaQLSYSlL28rWp8zMvef3x51n9mELLrAV5/3ytS7PTrkz88z53HPPueciEYGPj4+Pj8/nwbq6AT4+Pj4+PQNfMHx8fHx82oQvGD4+Pj4+bcIXDB8fHx+fNuELho+Pj49Pm/AFw8fHx8enTfiC4ePj4+PTJnzB8PHx8fFpE75g+Pj4+Pi0CV8wfHx8fHzahC8YPj4+Pj5tQmuvAxERAhxrXSpEJCIARGyXVvm0O0SUfkoAjU/Mf2Q+Psc/7SYYrr1QdgQRCFqWj+afU5P/ISBklEREyDBEaU1CBALfQnU6RO5tJ+9ZKP3o6ob5+Ph0Athu1Wo9qVC/t581JwCQEojS/wEwBERgDNOWyz11Zht82hulFgggiHjGTVY+Rxc2zMfHp3NoN8EgKRFRluy1fnALlZejZhBDRIYMCRloHJkBPAy9w5gTxGgIwkEMhTAUpGAIgkEMhSgaxWAEQyYEDTRNME0wDNAMNHRoyRylhQQaXRbPbGXYLwRQYyi+kBwLrioQCSLO2MaUdVNp+Zxw6Ce52eruM//2+vgc77RnDAOQOfc95Mz/F0IUQDTf5PA/CQghiMEYZkcgEsZoFMJhCEYwFIRoAAMBCAQgGIDsPH7yYDZkAA4cDKFQo4fR/GRSgiQiAobEGKgoiy8eR47yLYjIIjIZW5pIXFm8Z0c8sYBXnxww54RDQkr/lvr4HPe0m2AAIiLgqZPwT0HgOkqz1RA4QgtGHlXsQlIiTol6AAkgAQSABKD0P4kAEDRHy8GcLMrOxkgW9opiLIrhCPTtx04dwYYPg74FGAlgIAice1lgJAmEIARAVzy8trgSAv5YVst4UW5BZDK2LpW6uHhPWSLJNU1KucW2ZxORf+t8fL4AtGfQmyRp37gatu6x7vslMQOJE0lsrg2txMMJSIUmALkrKp60pH9BBCAix6HyMijfRyAztIcBMADEQA47aRAWDcSiftg/D/v2YxNGsTGjgGmQGfMgIkkEBIiEqGxi+hw+LuTqKdlEBmOrUqkrikvKEinGuQACxChD9KJHPj4+xzXtKhgkQZL+6/8G00jdfSeAgcAJWtKMFo/gbaYi24cTFQQ0AA03VcfbkAgAKFkrlq+E5UsBHAKBoLG8wThyGBYVYX5fdvIofsYUKCwCzpC7CT9g2YSInKnorR/FVah0WQJyiAzG1qess4tLKhsSnHORVgizZYfRx8fnOKRd52EwRlJKIfS7fkKS2/f+glAi6C37GUdFpqgQUfPDEgACAwwABgFR2X9ZVgpluwAIQEMwKRhiA09gZ53KRo1kw4eyyeMxEnP3lbJxQskXe1IIAah0WUeSzthay7p8x57KhgTz1IIAEEzmC4aPzxeF9kurTSfTkhAAgJzb8/5k3XwbAD8iP6N9UR6JysEFACBJkgAEgAPgENgIOp86DafP4EP6s9NPxdGjvFRdsm1gDBkjRPji+RxKKx2QOrJNtn369l1V9QnGuWzcQgLg68MHzg1HmiTa+vj4HJe0X9Ab3Pl2yBgRkePoP/0eAqRuuZ3IRmxPP+NImuTOCyEh0P0EADig5vofROKjxfDRuw6EMSeXjT2Zf/kiNnkiO2kkmAEEICEQETLnNsNxHufwZm47UuqMbXCcS3bsqapPIOfykOwABCKDfA/Dx+eLQnt6GAq3ey4lETHO7f/3N+tHPwYLETQi0SV+Rmu4/gdngAhCElkAjvoLn3M2v/wyPmksGz/WvUHKc/oCOBzqCdpEOkCJEGN37D5Y03CIb+FuRwDw8YjBp4VCksifh+Hjc9zT/oLhjmWoMICQoHHnT09aP/gpSAfB6KqxqcPgygYc4jcQ1QM42KtImzWdffMqNvU0lp1FAGA7yBkw5nbD4bjyNryLEgAccb8Ql+zY80l1rasWTeavEAHi+pFDRgUC/pCUj88XgQ4QDADw/AyS5Eima/ZTz1rX/xckCFHvbn5GcwgIGQdEEkkAC8DEAQOM229ks2ezoYPUlEBXKo6zZFwiQBRScsQqKefu3PNJVS1qvOWvCBEC7BozrL+h+x6Gj88XgY4SDNfPQCAJQBI5d/7xr9S3b4BUl8UzjhACFS1HBCkJLIAkFg3Vr/ga//E3sV8/AADHAc5V6b2ePntclREEREnEASql/NquvW9VVjONS8CWi4MRMYCyk4b30jU/EdnH54tAhwkGAHh5U1KSkKhr4rmXU9d+C5ICUesJmuGOVinpAM5IxAFsyCk0fvh1/t3vYr98VNm9iD06sOE5Scq3iBNcsWvPqxUHuaYJaL2UpCTkrHLMsByN+x6Gj88XgY4VDK/CKRGRkEzjzouvWNd8lxqSiEb3H5vySKfnMkAgmQJI4YBh+s9/on37GmAchABElR7W44anvICTJGIA9UTX7tr7UoXyLQ5beJiI6bx85NBczfcwfHy+EHT0invpkhtqHrXjaJdeZDz9BGg6kYXA0vXKuztK2IgESImgI4vR7h3W9TckZ15MK9cg50BAQipXg1QZ9p4AESGRmgXJAQTAD/ceeKniIG8xyt1s5/TUSB8fny8EnbFEq6cZwLm0HX7xeear/4RomMBCxnqQvXFlAwCkQAwiBOXidxIzz7PvegBQAmfkCPQWFOr2mqFmWxCimrmdJLh2176/HajkmpaetHLYh0NIyPyygz4+Xxw6aU3vRj9D4ySEdu6cwHN/h2CIpAXAeoST4aEycIkEACGLQkODde/dqVlXwM69oHESojGq0b1BIiSQRByRId6078Az5ZVcY27cog375zLk3V4XfXx82otOEgzI1AzGyLb5OWcFXnoGY7kSkoi8Z2kGACAgAZEUCBqwqLPoleTcS+Q7H6KmgZAkpYqHd08/g1QtLkRJEogcgG+W7P/T/nKNc9FaTlRLh8llqHd7XfTx8WkvOk8w4BA/Q5O2w8+eZb74FEZziHqqZijZQCmZliM3rU9eepXzjxdQ45SZPdX9wPQSFwDIGbt5f+lfD5Qzzh1su1oAEIaQ+clRPj5fHDpVMCCtGaTGphyHnzkt8PKz2LtQUgMy3k075IdF5d2S4yBGqK42dd13nT89wTintJ8B3cnPoLSUSSIiYgxv2Hfg0X3lGufySNQCAQAp5OYtdJer8/Hx6VA6WzAgnTiFgMA5WTY7Y2rgub+x7EKScWQce5qfAQCoZIMEQxOkSN14s/PoH5iueda5qxvYCKaXigIAztjN+8t+v68M2RH6FkowCGOMcfQTan18vih0gWAAqJUWCBFR18gRbNZk85VnseAEkvXQM/0MSGsGok42WTfdLn7zO+SciFDK7pBrS2lc3wLx5gNl8/aWccYJPy+DtvnRAICoF+MMO3oqj4+PT3ehiwRDrUqkZvVxRpbNpk80n3kC+wyWsh6RYw+Zn9EEBCSSDDQizbr1DnhwntIMkNLthnepbXXHAwk4Y/99oHzenlLOUCCqxZKO7FAAgBTgDAh73nPy8fE5KrpMMABc0Uj7GQ6fOTGw4F982CiiemC8hw5zICCARGQC0Prlo/DkX0jVm5LSrUzVFaiwkSQiQM7w9rLyB/aWcsaEOxJ1dAcF4gyQ0PcwfHy+GHSpYACAFwPnnGyHjR9j/vvvbMgIknWEvKfMA28CARJJBO7UxeX9j+HvH1UmmaSETo+Be/laUkpJxBn+vKzi/pIDGqI4wrhFs0NjhDOEbpoJ5uPj0+50tWB4MXCVN2XZOHaU+eozbMx4onp0/YwephnoZtwCgbRKDsLrr8Gf/wCuaFAn+xkqyi2JCFFj7K6Kql/vOcCQHWmUu+lhAQApjzHocY/Hx8fnaOl6wQDI8DMMjRyHjRpuvvw0HztOyjpinKBHjpKreoUyXuvsqMWF8+nhB4kxYgykBIBO8DMyo9xqgaOHKg7eu2ufBnhEGbQtooQ8C33B8PH5AtE9BMMrUkjIOCfbxiGDzeef4hNOJVmr6k31uLEpb1qf2LWfIIAfvQ+PPYKWBQCqui1Ax8bAvQxaAtAZ+33VwVt272WIx+hbKIgICGPpSJOfKOXj80WguwgGgBsDB0TUNHIcNvSEwKvP8NNOJ1kHnPWUQuiZEBACF4k6WXYQc3LorTdp3oMgJHAOHRwDb3QvADji4werb9i5j7WHb6FQSV+htIfhT8Xw8fki0J0EAw6NgQsBhYWBF/7Ops2QopoYh54WA3edDJJi/T5KWJidBR8tgscehlQKkEGHxcC91SkEkcbYXw/WXL9zLxC1l1qAWmFQY6BxaFfBUCIHGYLX5JN2OUunkdlyKVXaAYHvkPn0WLqZYGTGwDknx4HCfoHn/qbNnEOyGhhHd7GfHgMBITCnpoYSNkpJ2Vnwwbvw4K8h0QAqntHefgal60QptXi6uua/du0FSchYe6kFAEgi4FznHNzF29vnoWDGAhuYgVuCrKf5MarBquWMMcaY90lXN83H52jodoIBkPYziJBzEALy882XntLOPlfKKtJYz4qBIyABgnCgOk6I6DgQi8HypfC/j0Ay4Y5NtZOf0ZhBS2QTaYz982DNN3fsSUoCxqhdVx0XABHOiri7yGD7ehjqKmzbTiaTyWSyic/RLifqHNKtparKyv3795eVlQkpwPcwfHos3buuAxEgkuOApkFFhXXd9+zXX2EsB6Rw10ztCRAAgTCLBmizR0DCBsaQM6irg/ET4aZbIJYFQgDnrmAcs+X1fIsXauq+sXNPnSOwvdWCAUghR0SC7w0dmK9pKgWrXY4spQQARFy3du3TTz/NGXcce+iJQ797/ffUF7Vn9c2llIyx8vKy2269be+evcFQ8K677h4/Ybz6vKtb5+NzxHTrb61atgE1jYSA3r2N5/6mXXCZlBWkcew5fgYCIUinoRYtqUaLQAiIRWHVcvjtQ1BdDdxdFRxUjOHIyRzuV77F8zV1X9/RIWoBbuVBGqjxPM6lWsa8PfDGnRDxxZdeXP7J8nXr1q1bt/7VV15dvXp1uq5JT3IyVFPr6uttyw4GgyShqrICfA/Dp8fSrQWjcfxamdRQ2Hz6cf2yq8ipJs57Sq4tAQIwSDpUl0INCQkQwREQy4LVK2He/XDwoKsZyrIflTVRXW9JYDD2Wm3dt3fure8YtYD0JIyAxhmiaD/BgLQl3b59+7q167Kzs03TjEYjlmW/8cbrqmpiG4/Q9ph5a2H2w0enDx+c9zZTD0WFLqSUiMBV1CdD/D73XK1d1Ofu5ePT7nRrwVC4YXCVNxWLmc88rl96JYlKUnUpur1muEu6Og6lUm5ld/WSCwGRCKxbA/Pug9IDrmbAEY9KKUkgIoeIM5xfV3/Njj01joO8Q9QC3MXAIcx4Ox6f0rF6RPxoyeJ4QxwAHMcRQuiGsbN4Z0VFBVfVf9NnzDSaQgghhJRSHUQ2I7Oue5OTunVTmuE1qcWmIkKLe3li0GQv1Wz1+WHO1byF3p+a79JaC318OogeIBjgjU1xDkKSETCe+aN+xTdBVJPWMzQDAMhxyHGUaXdHnxBBCIhGYf1n8NvfQNkB0DTXz2hbDJy8DFoiQaQztrC+4Zqdew7aHeVbuOclAsA8zlTeUrsYrHQfHFOp1GfrPgMAxljf/L6Mo6kbu3fv+nT1p3Coo+DlTSEi55xzzhhTB+GHwhgT3lrrGXiGmDHGmwEATQTA20tKKQQ130udCNI+RLObBuqYmqY12dG7fG9H71xeM5qfSzW+NYny8Wl3tK5uQJtoDHVyBlJKM2A+8/+Q6fY/HyeWg1J28xg4ATKSmJTIobFUnzLoys/YvAl+cz/8+GboVwQqyN8GMMO30Blb0BC/euee6lQH+hZuwxEBIIu156w9Zfs45x8tWbJu3bpgMJRKpb79ne988MH7by94WzeNd99794wzz9Q0rUnPGhFra2s2b95sWdbwYcN79+kjpVy5cmVFeXkikdB0LRyOjBwxsrBfoacN4JXvlVIlvJaXl2/YsKG+ri6VSmm6HgoGC/sVjho1Wm2TuQukQ9kAsH37tp07dsbjcdtxTNOMRiLDR47om9fX20bF8BWe/8QY279//6ZNG+vrG2zbCgQCeXl9J0yYoMRGjV955yIiIFJ/Wr16VUVZeSKZ5JoWDAYGDhw0bNiwzPZkul8+Ph1BzxAMhduHYgylJAD9iUcImP3Px0GLoQME3VcxEJFIUNJxaxK6w1Tpn0JAOAzF22DeA/DT26BfUVvypigd8FBq8X48/tXikhrL7mi18E7NDQ3aSTCUBihb+dm6dUJIx3GGnHDCKaeckkjG33vnXY3r27dtLy0tLSwsVFt6e3HO33rrrb/85S9IeO7cc88468xnnv7npo2bUqmUEAIRNE3L7dVrzpyzv/LVr+i67nXklZ21LOull158a8HCsvJy4QhlsjWNBwLB8RPGffWKrw0ePNhTJk/V9u7d+8w//7lq5cr6+gbhCEmScaZxLbdX7qxZs770pS9FotEm5ls12xFi/vz5Lzz/fFVllRpw45wFAoFRo0dfddVVI0aO9PLEPKeBMbZ8+fLnnvt38bbtqZTlCIchY5xFo5EJEydeddXVBQUF3kUd44Pw8Tk8/O677+7qNrQVbxKXOwdN59qXzoO9dWLFB8CCak277ulnIBCB4Pm9ed9scBzEjJFAZdylBMOAinL4bC2MGAm5vUAIYAxamZvdZCTqnXjiiuKSqpTNOl4t1OmRsWv75I4zDaV+x2iqvD51RUXFE0/8BZHV1Naed97ck8eONQ1j6dKlDQ0NlmUxBpMmnZI5JKWs8NKPP17z6ZpQKFRZVfnWgoUlu0uEECQlY8i5put6PB5fsWJFTW3NuHHj1FiTOkhDQ8NvH3nkxRdeTCZTJMm2bQCQUhIBEW3bum3lylWnTD4lFot5Iz+c8/Xr1//ijjs2rN+gjLtrrAEZY4lEYuXKlcU7iseOHRsMBlXzqqur33v3vUQiYZrm7l27333nndraeiklAHGm6bqOiLt37V6+fPmYMaP79OnjXaA63csvv/zwvHnlZeVCkG1b4A5DgXDkls1bVq1cOWLkqN69e2felmN5Fj4+h6EnCYYLojJYJCQQ8bln4oF6sXIRMgMJu6lmIBKQXpjH8mPgyENe6cwRKsOAqipYuwZGnQS5uYfk2h5qBRCRAJRv8VEieXFxSVXSQs4JWvVI2pcQY3cV9M5jnADYsdcxTEvgggULPlr8EWMsKyt21dVX9u7dJxqN7Skp2bp1GwA0xOMzZs40TdNzMgAAEdeuXbtu3bpAIJCMJ4QQpmmOHjN62vRpJ518smmaFZWVJGUgENywYX1+Qf6JJw5Thp5z/uabbz737L+ysrOFdMacNOaKr31t7ty5U6ZOCYfD+/fvNw2zsqK8rr5+6tSpnqRVVVU9+OCDB/bvD4fCUsoThg45a/ZZ06ZNyy/Ir6+vb6hvCIVDO4p3VFSUz5w5yxWMmur33n0vlUoBQE1NDSL2H1A0Zcppk6ecVlBQEI831NbWhcPh6urq4m3F06ZNVxeoWrh69erHHv1fBAYI/fr1u/wrl1908cXTpp0eioT37tmj60ZV1cFt27fNmDHDMIzM2+Lj0xH0pCEpD2VgUE2T5tz480OQG7Ef/DXwLBTQDTUjY7islYYpmyslBAJQuh9+8yv40S0wbFhzP8PrSCrf4t1k6mvFJTXJlLsWLHSKYBAFOBuq6+60kmPDs8WIuHrVStVPP23qlBEjRjmOwzk/88yzFi54S9O0A/sPbNiw4bTTThNC4KF3Qx0HGUMpv3P9d2bPnqNpGgAIIZZ+/PFvf/tb4QiNa2+89vqUKVNjsRgi1tTUPP/vfwNidU31Oeec/YMbfhgIBNShZs6aVdiv8K9/eSIajS1etOiCC84fPXqMZVmGYSxd+vG2LVtisaxEInH+Bed969vfMQxD7XWw+uBDD/xm9erVsVjWqpWrVq5aPmH8JIDGWjaMMcdxJk+ZfMMNP8zOzlYf1tXVzXvooWXLlsUisU2bNn2yfNlZZ81Ww2VCiH89+2wymeScDz1x6M9+/rPevfuovabPmDF27NiHfzMvGAxu27r1jTdf//KXLveyrY7xifj4tEaP7I9gerwWGSMAktK47079J7eCqCeEbpg3pYbLCD4v90mNTZkBKCuFefdBcXFj7ZD0/Ax16Q6RxtiKVOry4pKyRLLRt+h4Y+FOwjD0ADI85kkYaqRejeqsWbNm0+YtnHPDME4+6SQvcjBw0KB+/ftJKROJxOJFH1qWpRKEIHP4hQAAksnk7Dmzzz13rqZpKveUMXb6tGkXX3pxMpkIBoObNm9es2Y1IgohAoHAOeeeO3bc2Dlz5nzzm982DCOZTNq27TgOAMyaNSs3N1dKaadSe0r2EJGmafF4w3vvvqvrRiplDTlhiFILKaVK6s3JzrnmumtDoWAymaiurvnw/Q/d5rk6jqlUqrBf4Y03/ig7O1slAQshotHot779reysbNuxDcNYvOhDL89q3bq127ZuNQyDgK742hW9e/exLMu2LMuyHMeZNeuMGbNmWJaFAB8tXtLQ0ODdFh+fDqJHCobCzZZhavVTMub9Ur/nHqA64tDd5oETIgJDYumgd+u4mmHCwSp44Jewfr03p4/SgVBHks7YipR1aXFJVTzh+hadaSkIJpk6tUcuZ2ay0+LFi6qrqhiynNzs6TNmAIDqZYfD4UsuuaShoSESiaxatfpg9UEv6N3YIiQpZTAYvOjiizMnXqjfzzjjzGAoJKUEgrKyCrWjaZpXXX31Pffec9NPbsrJzWGMBQIBXdeJKB6Px+OJSCQqpQRkDfG4ym6qKK8oLi4OBAKJRPzMM8/QdV0Zd1VYUEo5YsSIs885J78gf9DggUVFRWmfz22klHLSpImxWMxxHBXhR0THcYqKimbMnFFfX69pWlXlQce21fbr168/ePAgIvbNy5s4cRIAGIahG4ZhGMp/uvSyLzHGNM0oKysvLT3gz8nw6Wh65JCUorF3iUggiUi/81YUjnXvLwlDSN1obIqIGDBmqMSnz2uSFwOvqoCHH4Bbfw7Dh5MQyBggOlJqyLZa9lU7SvY0JBjnKqumMy5DtQ6ACEfpBiKKY+5xeIP1NTU1GzdsDAZDiWRi7gVzI5GIGndSqjR82PC8vnkN9Q01NTUrV6w877zzmoy9KKdhwMABBQUF3ufKyiNiVlbW4MGDNm/agoi11TXqczWAEwyGAKCqqmrnjh0HSksry8tL9uypqKiora2pKK9UnorX1EQyiciUt1HUfwCk49KZaVTf/e71V19zDWfMDASEEJxz1ykj0nV90KAhmS1Pz9vAPn16qyNYti2kNDknotIDpYZhSCnCkfC6desMXZfkBsBIEuNs7569SrQa6hvq6+qJqGfVcvbpcfRgwVC476obAxfaPT+DcCR1222AYRUDb9FAq5gAdFYmLgIBMAhyUjNGPn+HtJ9RXwO/+TXc+BM8eSw5juBcY2yrY19cvHtLXZxpXAI0D4l3KEQESKbZDt8cymDNp59u3749Eo4kU8kJEyYCuFU0lDMxaPDgkaNGLv5gkWkGXpv/2uzZs3Vdh3SxQgBAQillJBKB9BxANT6jrLOhG9FolhCSMVbf0AAZQrV3796/PvHE/v37yw6UHjxYrdYwkZIYY+FwOLO1iOjYjmM7atBM9fG9AIz3k4BCoRBkzopID0khosa5l/966HwL9NJ2VbNt266trQVATdN37tx1/6/vY5zBoTEbxxEApBt6fW19PB5XKYTH/lx8fFqjxwuGF/xEzkgCSanfeiOAY912J6EJwFxlSCuH+0K5QwWdZ2uJc9I5EgC2bcaI0gzdgJqD8PCD9JNb5cljNSH2EF1dXLKxPs40Lr1J452Imto9XNPVP48xyopp3nv3PYbMcZzsrOyPPlqyfv164TjeeKNpmjU1NbphMM7Kyko3bdp00kknqXEntxlAQODlKzdpkhvxQgJCSULtgAzfWrjwyb/+tbKykiG3HTuWHQsFg1k52b1ze2saX79hg5WymsylcAeZGLJm8x4oPRmwaXwlYwPPA/A0AzK/w+guBpM+V3pyuJCVFZXk1mRpvOR0MA8t22JulSrfw/DpQHq8YCjczhpjICU5jn7rT8AMpn58KwMeAFtmDJwwkgSYxCABchIZ8+g6FELOkGsIJNtuXz0/I9FAjz7Ebrhp9/gJl23ctrI+4foWXZEPg4iA2F/XlD07lpxaTM+1rqio2LZ9m1fuYuGbC10xUNYPgYgMwwgEAlJSbU3NJ58sO/nkk5ukSAGClEL900u7Uv8UQti2jYhCStM0AYBxtnz5J4/972OIGAwGw5HIxRdfPGjwoGg02qtXrz598hLJ5E9//OM9e/ZlPi7OuaYxAHAcxxGO58FAhtHPTGx1HaDGoVNs7buGmBYYt3YMKj8GABzHHjxk8EUXXcwZkyQzJ/EQkBRCSmkGAiNHjCCiQ6b4+Pi0N8eJYEC654uIxBg5gv/o+yaQffs9f5969TtTLqsO5RjSya4uH1O89OylC4bvW89B1GOUk/TC0B1kfQkAgJimo2GQlG10MNw9XT9DF7U1+qMP/fqab6/sVcgZik7LoG2GkDIaCvQ19czu8FHgTb9gjL34n/+Ul5VHIpFUKhWPxxlrwbAmk0nGeCwW1Q1z6ccfn3/BBfl981XMGdKxhIqKCiGEpmle+Ff9TCYT+w8c0DTdcZKxWJbKEfjPf/6j5nX3HzDw1ltvHTBwoHcuKeX+ffsOlJYahp5KJb1TmKbBGAPAVDIVj8czL8S7ls8+++zT1asN05g69fR+/foBHBJWaP1uZcZjSF1Onz69VYRDCGf2nNltuat+Tq1Ph3L8CIZ6V1SlCgGSSQk/+q87E+Oe7T/V1AGkG0l459Tz/jb3J7OXvXrRomdnbl6QhIiNBiPZccNTCCSBKMAwYkghmJpIFbIAACAASURBVPqsbXuq6wIpWSAA9XXXvv7CX678voMMSEJXTNHiAELK88LBwVxTK2Ec9ZCUF2lIJBKbN21S4d/+A/pPmTLVG4zykJJ0XauqrPrg/fdNw9i3d1/Jzl0F+QWZxlrTtP379n+ybNmMmTNt2/ZiGLqub9u2fd/ePeFwpCEez87OQsSy8rLysnIVr54zZ86AgQNTqZT6p/JmNm/a1FDfEIvFvFMgYiQaDQSDDfUNmqYt/XjptGnTVbCdMSaFYJwnEonf/+53O7YXp1LW7l27br7lVoAjjkNjega70htN13ft2r1u7dqRo0a5UXQAVaFECLF27VrHsQcMGFhYWOgXCPHpaI4fwXAHjgEEAWNo23Tb++L5gVOzHAnJRi1AIsvMfub8axZOvvTSj5/8xsu/H1xZXMuyuRQdFAknRCRkLEgGx4QkdoTHJwJEJgQZ5tR9e6fvL36v/3Bw5Ofv2AEgERAU6bqGaEmpA+DR6pYyzYyxzZs2bd22LRgMxeMNF1504dy557W2i2VZm7ds3r1rN+P89TfemHTKKaxZAcTnn3t+zEkn5ebmenulLOuFF57nXHMcJzc3Z+jQoZSRq0ZE5eXlAKDmV6vjVFZWzp8/3zCNTDl0HKdXr15TTz/9pf+8GI1GP1n2yebNm4YPH6H+qlryyssvl+wuicaytES80WVxs6Ta2h/xAuATJ51SWFh4sOogAr7xxusnnXyyytpS53Ic5/eP/W7R4kWO7Yw5aczP77gjFAodY0jJx+fwHD+CoWyGkJIhk1LeuZT+VcxyDSGRETIENfcNJAMk6lXt2IHIX+fe8OHos3/67F0XLn++AWISGANJbY1KtxkiAKbnZCFJwiMfNFCD42pom2BK2f73Bo5iZHeJYkhEYFigae7o3zHcKKUWUsr3Png/lUxpIS0SDY8ePcZxnBatnhBC0/VJp0zatnVbJBJZu3btrl27Bg8ZAunRSCmlaZrFxcX3/erX511wfp8+vRljBw8eXPDmgrWfrg2FQrW1tWeedebw4SMcx8nLy+tXWLh/335d1z94/4O++X3HjRufX5BfU12zZfOmf/373zt37DJNo0mDNU2bNWvm2wsXSikdx7n/vvu/fPnlQ4cOjUQiFRXln6377JWXXzEMPZlM5Of3Pffcue6FeFHqz7tb6Wi5myWcn58/bfq05//9XDQWW7xosWn+9oILLxw8eHAymdy2bev8+fMXffBhMBBKJpPZ2VmBQMBXC5+O5jgRDPWqCCKGmBLyFx/RM1tZbgAlYfodUj9IZZE4ms5IZtXLPQXDbrrpqY3Pjf7ey48GZCoJQQ2cNmcyta1tQAwYDI6BIGXbjm7oC4EQIaVpANRV00skETCWo/N0htmx5kfV1tauWf1pNBqtr6u75EuXqUEYNerSfGOGOGPmzLffejsRTwghln2yTAmGt4GQAhE3bNiwfsP6UCjEGKutqTUMIxQK1dfXFxQWXHTxxV7+60WXXLJq9SpJMh6P//6x3/cr6ldU1K/q4MEdxTtIgppXp2bkqVMoeRs5ctQll17y9NP/DAVDNdW1jz36vzk5OdFYtLysPJVMhcIhy7I1XfvaVVfGYjE1WqX2VYteHOaGqG0ys4GJ6Mqrrtq4ceO6tetisdjCBQtXrlgx5IQTUqnU1q1bkolUIBCsb6gfMXL417/xLc55ZtqYj09H0ONzKry3S0rJAAng3k/o71tYtgmCyE06aUyncZNQkQiACY2bljBs9ujX7rjjxscqIzkhqHeQq+Tb9spPRADgGqiKcnSUkWoVBUbCpb3yQErZFWZBpQFl69q4UBAJOdGxFJJS6aebN2/eW7K3pqaGACZNnJg5CS4T5Y4Q0ZAhJ/TrV1hdXV1VVbVs6TK1sXK2bNseMmTI3PPmmgFTOCIRTyQaEqZpOo5z8ODBQYMG/vTmmwcOHOgdauLEibfd9t852Tm1tbWapu3bu2/J4o82bdiUSqai0cgll11S2K+wvLy8tq5WpkPriiuvuvrKq640TL2urkbTtNra2pLdJbZtA0J1dXV+Qf6Pb/rxWWfN9ip8AFF9fX1tTW1dXZ26X5n5Xep3Rzh1dXV1tbVqVrl31aFQ6JZbbpk+Y3o8ERdClJdXLPpw8fJPVsQbEpZt2Y49Z87su+6+Jy+vjzf15KifiI/P59LjPQzVpVIzElJS/s8y+NtG1icIkgiglXCBa7IJASXnKGVO3Hnp9CtKcgY++vB1RTV76lhUk+3jZxAQAKFpYEBDAnlUU8/dlfWI9uVkr+hdBFJ21ozDQ1AjP/m6PsE0pSSGeCwjIMom9u/f/8KLL0ymkkVFRSNGjKD0qhjNN4b0akJXXnV1QUGhZVkjRozwGqbMq2ma//WDH5xy6qkffvBBRUVFXV2drms52bmDhwyeO3euWlvJCwtLKadNnz5w0MAFby4o2V1SXVONCFmx7NxeuWeeeeZJJ588f/78on5FuqGPGz/eazAAcM6vu+7rk045Zcnixfv27q+pqXYcxzTN3r179+vX79zz5vbp3Sdz5mCfPnkXXnRhaWlZMBgYMXKkdzkK5YKMGzf2S1/+khBiyJAhqu6s1w3KLyj4xZ13vvP225+uXVNRWh6PNzDGYrGs3n16Tzpl0pQpUyFjZUDfw/DpUHpw8ZnGDBnXZMC9y+Qf12GvAEqVyqpKSh3mFfLGjIm4FA1BrWjnZ3/8zdWjK7bUQUQD0S6aIcE2BwzSTx9GIFVh9iPanQCQyGZMjzc8MnXGT+dcAo4goM7PkkIiknRtfq8n++ULIO3YUv5btG6ZKUlt+ZOyy3978smn//F0MBgcOWrkPffeq2ZaJBJxy7IZZ0EzoKWnhWeuTOdF3QHAsqxkMgkApmmq3b2NmzeY0ssoAYBlW6lkSkqpaTwYDKldmiy22uK1HN6yezs2uepEImFZFkM0A6ZhmJnnasthfXyOkZ7sYaSj3IjMIXpwuXz8M9YrANIt9teGhKf0ewaIgvFw3C4ZMub6W5956leXDazZXY8RjZxjrEalRAv7Z5PBKCkYO+KjIYBEREkNAeOFoSOIa8yxqavmZyFMDZoAwOBY+7ONTgMANJtq19r2kDaRkFEXhDLKbKhwMSIGg6Fg0N1XfZJZ49bbWB3EMAyvSnnmmneZZ88UAJXSioiGbhh6Y2zcOxEcKjBNLiTzMj31an4fMo+gwiHBYDCYvio1puct6QotKZOPT/vSU2MYaohGvVEM6ZHV8k+fYZYJUr1lcCRV2BBVJqPgWqTB2T9g5Ndvf357n4ERahDIVQDkaL0wIpKoB1k0CJIAkY7wlVanloialXxh7ISPh45iqaTs9HIgbmMQgGCoacKhmaxHebSWzKjq9R9+F++8nt3NbEemvfZQsetMW5zpYXi/ewNBLUqX9ye1mQpi06F4J8p0Yg7jLTUn8xSZvzS/KEyXVvxcrfXxaS96pGC4w7tEauhp3kr5uzUsZiCBO+sBAI5sJKlRM3go4ew8YfTPbni8OpRlUlIiwzbVC2ypnYAIkoVDGA6CFAhHFiUmd8SQmBC1segjE6dIoYIihxSh6zwkoc5HmEa7GCfPcGca6LY4GYfskiEemf365kAzhWty0ha3b3H3Nu7Y2pZNWnL4+3D4c7V4XT4+HUfPE4zGnhcgZ/CHNfS7tRgxkICIlAXBo4k7KM0AFJzH6p3lI6fd9b1HrYDOQUjAo1tuAhEIiMUiGDVIqJT8tjaM0j8FMGan5p16+qf5g9BJETLATi1Pq+BEIOVXc7P6aO4c7y7Hc0eklMlkMpFIZFZE7+rW+fgch/SkGIY3IiElCQKdwx8+lQ+tYiEDvHFsADj6KDW6c70lZ5G488rUL/fdufu2//wihSEgYkdeppBIIhjagD4gJaYjK23aMZ3DajOmJ5P/HjXmV5NnMsuSKnTRKeUSm4IIAHNCIQPQJsm7QcfWa8Dk007bt39fIpE484yztPSkwq5tm4/PcUlPEgxMBwAJQWfwf5/JR9ZgUAdwqym00zkICBEQIg3iia/8+MTKLVd88JcazMUjDICrYtQsaGB+jBxJiKxtU/a8VH2JTLedA7nZd51xnuAm2laX1I9SCCLUtQJDo8/JPOs8vDGZUaNGjRo1KvPzrmuUj8/xTM8YkvICfZLIkcAR/rJW3rccNc68pWvaa6YdIalDAkDQxru//psFI2dHqeZIA+BqaXEWjqDBiQDbrBYIbgYSkJQMv37OJZv69EMrRcoB6orBFkYEkoaa5oRQEAhY9+jCe0NPRCTTeF+Vrm6dj89xSM8QDNWXVHZA5/jPDfLB1UznyICIWLqmUfuYMARU+TeEDIVMBqOPfP2BA9ECg2xVjqptpyECQiBtWCFx1na1AJVDiUhEXDrfP/+iBcPH8lSCGFM1hrqmc48IQJPCwb6cOwCse6wdnRn1ZWkyo8E+Pj7tSw8QDFVQg4gEIWfw9Hrn7mWIHDkjmV69pgPOiogoGYsmnM9OOPmxr9xhQoNyO9riZBAAgWTBCOZFvbTHzz1nhm8BXDi3n3H2n8dMZlZKqIomXWejJREydl4sQkToJ3H6+HxR6daCQSrzCQmIhASd44ub5f8sZ6AhB6UW7TYS1RQkFRhxGMtqEP+e/Y1nZ1wXoVqv0tTn7I0MQLBeUQwaJAR+3iAJpet/CESSxIV116yz7j9tNkkpgQBZJy/cfWjjSJWWnREOImI3cS98fHw6n24tGKpYEREKIo3jcxvE7R8jcKajUoujzaBt28nVymcqN5ZJeOyrd2/JG2FCUgL73EgCETHQtLxcNDnJz5le4KZ2Eal6QFw6d5wx+96pc5hwkAiQuZVPuggEBKLzc6JFKgGpewQwfA6DF9ppETg0/NPilt6ffHwy6aaCoTq1RCiJHEkaw9e2i198gpIjxw72LTJQhl5yblpUktfv4Svv1cn2Zhe3dnoCIhAYCrNBeWQ52PoEb0rPzkMiwRgTkiHdcs75v5p6NgqS7vBU1wS6000klaz8o9xsBBDpdIDjm55lRps0UkX+hRDql+YbZ5a6Uj+bbOlt46cP+DShmwqGWwiVSBLoHF7cLG9ejMBRR5CkEpBU+Q86zH/q/T7WphAhkOAYjYu3J53/yvgrQlAvgVPrA1Mq+5bnZEFYJ0mI0NoEby9oYTPGLcviePWFX3ro1FloO6QWYe3CQLfbQpSSck2jv6F/EeLJykRis5ofHtjNRuTo0IIlXvyfc65W12gyM7x58RJEbLJl80oqPj6KbjoPQy0X7RDpnC3cKf97KRJjOsp0f5dQrdGNCIfmLSnHQ60k6s7jo/RyQ6r8BxxhMCA9AxyJgPN537x7wi8W51eXpsBkrWgGASFwfViBioK0NoLj6hmiANCTyW19+1x79iUfnzASUynCjCh3l76xDEkIOisrMsQwHCIGbc0P7qF4c31as5WZdrbTW9dqY7zquY7jbN++ffu2bWXl5WWlpXW1da73gGp7QISzzzln5syZmQ7Tc//696pVqxjnAESSDNO89JJLxo4f5y8S7tOEbicY6VcxHeXeLn62BBFRA5KEwJA4EAPiwCRwm5hFTKRNK4DUQOoodJQcgAAFIAFIQAlIhJCWEHUuRGyLUVa1UTkLpsTOvgP+fOnN9/z1JgtNoBZspxqP0nN6Q14MpKSWLKx6UxFRFbLQbOuN4cNuOOfS4twCLRl3lGPRDdQCiASBrvNv5GQZiI6UXgpzJzahsb/f2jZeFxvaqSQiIiYS8b1793k5eETEGSvq31/X9e6pFjW1Ncs+Xvrqq6/sKdkrpbRtu3EFpwyEEDt37hw5cmReXp7jOJqmLfpw0ZNPPikcgczNUU4mkvX1dScOH+YvEu7ThG4nGOodEJI0zt4rEbcvBmKMa+QgMklGnaNVy0Ct4NVSa5CaRTwhueOND5HUUZgoDHQMJqLMiTIrzEUUnTBzjMYaTCgBBaHb88IWzfohKPvOWCQJL8y67sL3npmwc0USAs2zl1T7eUEu6lw6DgI0WQCDvGEoRN22geNjU06/ceZ5oBksUy26wVuKiCRljmHMCIdIFUfpXOOR2Z0//Jnb167V1tY+/NC8devWaRpPV5tBIcX0adOu//73TdPscjOaqaOc8xXLVzz11N83bdxkGIamaZxzTdNa85Bsy7Ysy7ux+/bvJZJZ2VleXXfTNOvq6lLJZDgc9mrI+/hAtxIM10cGUL7FGzucWz5mToAFUlIrl5EyO7YmqdVKtIE5xCwCCYQADJsNSRFKQADSQOooOUodgKGdx+qHmvHemjCYE0YRYiSBCUChDuB26ht70Jnvm9uBRUay3gw8cO0D//jluShBAmbWmCIgIMnNCB/Uh5Dw0O6d51hIRALQk8nS3Oxbzzjn72NO5bYtHUd2J7VId7bh9r69w4y5q1B0btswvV4FAXy6cuXiJUssK4XptUCIpGEYU6ZMHTd+HOeNJaSOxZSr3vrCBQuWLFkcicQsy/b+RJLeePPNsePGzTrjDCFE84XHO5NM3+KjJUvmPTQvkUhEo9HGNUIygi6ZO0opGW8siq70BgCkFFK6PpyQgmHjNp18aT7dme4iGN5XU0jSOSzZR7eu4DJOfUuSkQ3JYInDLFIRC0AghiKALSYquUNTafsNEphNzAIk0mplaKsNGjoBtHvxhgF6Il9P9eJ2lElEJggIUZI7CIHK/Wi0j+nRbQynxJoRE96YcvFlS56pxSwk4dWYQkAJxPpkY++ItGympoun26LePwdRcwRI59VRo3941vm7euVDKiUA3DpR3UQtAAAQSAYM7cuxiDI8rNMb5vWg337rrXkPzWMtldJ67bXXb7jhhgsvukiVqj1GA6cW2qupqdY0nTFG1Ni/5jpHC2tqajJjBl0CpWv0cs5XLF/+4AMPElEoFMpUCy983WRfpcHNIzGUXsYeEb0uWHeL8Pt0Od1CMLyvr5CgcfiwVN78IQTWpApWJXilBEGkM6kfaggI1JJE0GxInQBUdBwgHRj3qm4AAgBLUGCXEyq2RRjtMBMRVj/SqB1oOkEmTQQJ6BBKQoR0TowbKle/ckmS6Y9d+NPTl7+TbdXaoIObZat65Jo+pIBIqvVh1bWp11EiAoFmJWsikZ/PnPuHcacTMpZKyW4T4m6EiCMKIb+Rm52naQKAtfewTxuaQETEGKurq/3HU09pmqbGgjK3QcREIrFwwcIZM2fGYrFjD2N4drZ51ESZYy+b6KhPcewoo88Yqz5Y/fifH1criiu9BDUHiDEiSiaTtm1nNhURhSMGnzA4HA43eZqHVBLoHt9Bn25I1wsGEaFaLlqSxnHFQbjnWSf2diJ7vy0kko6guZlRTfverby0rY1KeH18FTkXgOCAWSWhQoZK7Nxgws7TakYY8QLdyuFCQ2a76bAqVE7pIwvGQklRPPik+VMu/8YHf7TAwLR2SZB6Th/WL5scSUiITPXQCFECcscGhP+cdPId0+ds7F0ItoPkyG7nWAAAIICQMts0vtc7xwB0SLJOz+71urdbtmytrKzSdd2ziR5SykAgsGXLlrVr1k6bPg06XdW6BE8XFyx4s2RXSTgcbqIWqVRK07ShQ4f26ZuXFYtxzt0+GZDGtTPPOis3N9cPTvgcBV0vGIhIAFIQ5/hpFf36gbjxXirskKMz0ADIdReO3Vx5QkKQ9k4QpKaGtpAlKbjDDm237FyeyuHxIfrBUQHHZICAAlCSuyafCkIwNB16/Mrb5nw6P6+mzAGNuYIi+dA+pDGyHUzn8TqIuuOAcPb1zr3xjPNeOPEkYJxZlkQkxrqXY5FGhbtHZ0XGmKaQxFtPDu4gvKRPxthbb70lhNB1vXkTlKhomrZs6dLpM6Z7+x51Y5VjkTm1LfNckF5Ju2sHatQFxuPxt956S+Oat8i5GjhMJBInDht67bVfP3HYibFYrLUjMMZ8zfA5UrpSMLy3ThJxzrZXiXm/qE9+aIWC6BiIpMLa7W+qlHKANxPCVQyUDACR18pwpQjvtLJWJZMD9JqRZjxPd0KINjBB3tiT7lB5rO8rM75yw6v312AvIAEgtFgO798bpEQEQCYAEUhPJKqyoo9PPPWRcVPLYr3QToGwpZKKbuZYuBBJAGboTxTkMSKJai2PzmuqMohCCMbYrt271n/2mRcw8MQgUxU455+uWVNWVtqnT54yhUd9ajXiFItlOWruZAZKKrKysrArwjkennuxadPGmuoarvHMaL9tW0X9i27/2c/y8wsAQAjRXNsylzHv/Pb79Gi6bKa3F5eTkjjD8lr5wC11FR9YwQgTiCiJwJWKjns1UY1Zu2tXuBlWxFEGmdSYXiNjnyaLnq/t/0pN/ocNgTrhmCg5EhBKBJII9MIZ39qZNSyLGnQgDSQO6AOxIDlSIEcibqWYdP5w2mmzr/z27TPOLwvHmJUgAPKKCXZLteCIIMT1vXKG6YZwyzB2qoPhmTNE3Lxpc3lZeYvRC88L0XW9qrLy7bfe9iK6R20K1WHnnH32zDNmCikIpPcfIF1w4YWTTzuNiLDrVrLyrrG4eEd9fT3n3H00RADgOM4VV16Zn1+g5mEwxlSWrUq0VfhF4H2Omq7xMIgA05U/OMeqON3387pdS+1IDIVwc5M6+busoudupFoSIBJH0hAIgjvs8HY7a2Oqob9ee5JZ31cXQWQpHoqLrQMHvz35wtnv/99eljOUW33793UcAYxpVsrh7L0Thz1w2vR3Bg0H4DyVFIxJxruvYwHp6SZC9gsG7sjrReA2tZOfhpccFY83vP/++5n5PI3ppIxnJtFKKTdu3OgIR43XH7WToY6WnZ196223lZaWNvZWCBjD/PwCLx7QHhd6NHgeRmVlpYppu8KJKIXIzskeOWK4unteI31h8GkvumhICsktXU6YdODOO+o2v2tlxZgj0glJXdMsgEMHrFAph8kEAK+RWVXJ6MZUfIheP9ioGWEks7RIeemz+c6LZ0xMMa2vEN+IaLNTFqB8dfTo/xsz8ZWho4FpaNsIjuDdWyrSIBEi3NUvr1DXHCl5V/RDPfeiuLh49cpVKmHUk4pgMJidnX2g9IDK/lQ97lAotHbN2rVr1o4fP/5YClp4412GYfTv37/FtnW5/eWcO45zYP+BzNRexlgiHp982uTevftAOt2r69roc3zSBYKh0qKkGhvn8MdH6jcutLKj6AjoNpPWANLKcYjDwREIwhut6IZU9kazZjBi5aOB3R+LQHZAylLGHj3Y8NmoYSumzXj6xDGgBZiVIGERInXtghZtRMXzhZiWG/tOTrYk4ukefSebHs91+GTZJ03cCymlYRjf/PY3n/jLE3t27zFMQ33OGKurq/tk2bLx48cfixPg9d9bHNfKjIR3lTlW/lM8Hq+pPqhpmtdIhmhZ1oABA3Rddxynyz0hn+OSLhiKRUQJBIDI8eWFqYX/SGWFUHgZSJ3foMPiOhzkFqFCBAowJ8gCOyj7412R0lVkZiNJCWgCkBCPhrKfHn0KCGDJuJsHBe1RNLejUSlgQoYN/bHCvioOAF2hFp57UV1TvWjRoibz44QQgwYNPPXUyf0K+znC8domhAgFQytXrkylUs0TnNqO1zHHjGVfM9d/ha7uvKv7I4RwHAEZmSPqpoUjYT+a7dNxdLZgkJu3SAxx/U77b/c3GBKIefPjuiNebBwQCAglEJAIkdBSDAWBqowLkgg1LVhTzRINwFAy5hZgxy4uUd5GOBFDfGRAwbhAgIi8wGhntoEyZiAvX7a8sqLS60Srn5zziy+9lIhmnjHLMA2S5PX3ucb37d236MNFx7fF9ORQJXFlBioQkcEh9cy7tKXgPQg1lphJ5p+O44d1/NGpguGZA4ZYZ8l59zZYlZIHkGQXRLmPCLWekyoBIrk0UtyoDtlZRkoLMCmJIwGRxvV4Q6qov9QNEAIAGnWiO78SREDEEB0pv1/Q6zvZWaoqLRxtJ/1Y8DwDKeW6tWuTyaQXvGUMbdvOL8g/4YQTEHHq1KkDBgywHTtzXynlhx9+4H2VjqL9TQxZcxt3GAOXucFhjGOLNLenmdvLZjS5Xd7Fqi9q8+1bI7NtR3qvDn8HvMOqornNfTX1p+Z35ojO0toDavvlHOZocIR6lnnVhxzqqI7WPenUGIb7/SZAji+/mNi3wg6FmBTdcCCqEbfgByExkii4pfGkXjq4qmzax1uve7tooX7S32xNkmTMjCcrigbsP+8iyMmBmhqwbZDyEPeimzpRyBGE44zLjj6QnyfUohedXmdQod40xtimTRuXLFnsVUslIkSeSqWmTZuWnZ2tav9NmjRxy+YthmHIdEhc1/VdO3fu2rlz4KBBR1cfMOOriIhNuzHU0iyQJvtSS7V1laXwPlT2yBvjgpYiItRKpV6VAKamMXrbgFcmmXNENAyjLRerNmucB35stsw7iDqOaqfX8tra2ng8bts2IhiGGQqFIpFI5u5qsrraq8Xb63H4+3xExsTbXn3rWjxak2d3mENBRsyvtQfa9rZ1TzpPMIgIEaQkznHrbuf5/0uYGlJnF8w+AtyxJkBCEFxwm/NkMF5QvemCVbsvXSz77wOH7/5qTnUYT1gYN1JO+aDC3Vfc5eQXgGVBnz5gWdBQD8mU622oSrSQ9ja6w1WrFxtROGJCNPzKoKIwYyJtfLvE5/Peus8+W19bW5eVleWVFHQcJzc3Z/LkyZ6onDZl6vxX5wtHqgKPRGQYxv59Bz54/4NrrhuYebSjaAAi7Nq1s6G+QU25kFJmZWUVFRUd5pjenyqrKksPHGDICICkDASDg4cMwUOLBqpd6uvr6+vq4vF4yrIgHTTinA8aNMgrol5WWlpRUeHN/CC1+kVNTTKVauJhaJzv379/R3FxQ0MD1z7/1RaOEwqFSw8cULWn2n6XWrtwyijLWFdXt2/fvs2bNm3atLGsrCKRiFspS3kbmqYZphkOhwoLC0aNHn3CkKGF/QoDgQAAqLkjeNjMgsb7XFlZWurdZxGLZRX17+9d5KM6GwAAIABJREFUSFueu3cixlh5eXl5ebnqKjHGBg4aFAgE2m7lM4UnmUzu3LmTVH+RSNO0gYMGGYZxFF/I7kanehhSAgKmbHj2yURynwxnYbPiQN0FAkJCQpIoGYFZF0xmJ7edv2zz9a9S3yqQgPUmIQCXtSfD6gIOwMBsgGgpWAVAEpCBaYCZC0JAXT0kk2DbABmDVO5pus7nSEuCdMSAUODvg4v66bqQknfdlDRKrzBqWdbiRYsCgYBMF71ARNu2hgwZPOSEEwBAmaRhw4aNGz9h0YcfqrLeakjKNM3Vn67+8lcvDwaCR9enU3u99tr8P/3hT95Lruz4Lbfdcuqpk1t77dWOJSUld915Z2VFpcbdtTRs2/7KVy+/+uprZHo91Lr6um1bt32ybNlHS5bEGxIE7qraShoTicSZZ575wx/daBjGtm3b7rnrrrq6+syZJV7PV9d170MhRCgcfuP1Nxa8ucC7b597papAiGkG2rhL8yNAhlSopWH37t27csWKl196ubKyUkpp2zakh6QQ0V0DQEop5Lo1a995+13O+YCBAy659NKxY8fm5uZ6h4JWeuXqw9LS0l/ccUfpgVLvPhPJ7//gB3PmzGm7ZijvgTG2bt26X//yV8lkUj2CVCo1YcKEn95yczQabc1jaPFQRFRXV/vbhx9ZtvQTM+BKfiqVmj1n9g9vvLE7BJaOkU4SDEoPMXPOPlmZ+vDlVCyKQnbHm9c4BoUEKLWkYely91nri697q3rsFnAQkjoQEpPAEepsqLKAAaAGyWqoehcKTgaRUfmTc8jOAhGBlAXxOFgWCKGmCHZlJJwIEBmAdESfcPC5If1Hm6aadQFd5Durkyq7uWrlyh3FO1S42+sDcs7Pmj3bMAzVCRVCaJo2YuSIj5YskRn1ug3T2L5t+47txaNGjz6KC/F2WbJoiRph92xiQ0PDa/Nfmzz5tNbGKFzTs2btnpI9mUtTAMDCBQsvuviSrKwsAHjn7bdfeeWVbVu3OY4TCASaKIHykz766KMrrvxaUVHRq6++Wl5eoVa+a3IuaJb07Blub4PPRcpDIudHijc6pK49mUy+9OKLr7/2+oHSA8FAUM0zz1S1Q3dOh1yItm/b/sB99w8eMviyyy6bc/bZmC4Mgy3l6alz7dq1a+eOnd59RkTLsl94/vk5c+Z4nYzDN957uLZtP/XUU1VVVaqILxGZprlkyZJp06adfe45LS5c2NrR1GJW7777bq/c3kIK9Sch5OaNm61UKpieUdSGW9tN6QzBoHStfURMOfLpJxKmQ1JnXn3ybkKmVBCT6CBZgYphZWu//3r16avAsDEeIEbAAFSVIQKoSoIjQWNAEngY6hdDwwwInQIyCZCRj8s5hIIQDIAQ0BCHeAKkACkBENihd6BDfQ7v4Kim2VMkHPzz4KJTA6ZNpCG2+H52Dt5gsXrlLMtSb6/6kxAiOzt7+ozpXndPjaKcffacN157vaysTFkl1XLHcV568aXRY8a0ZUC8xWZgOqc20xYzxjg73OQGdEv0C03TIMPEIKKuGwCQTCb+9Mc/vbVwIREEg0FMLw/VHCWWRCQcp/nYukdztTi6Z3fUrpj3C2OspKTkwQfu37Z1u6ZpsWhMZizO0cr+4LXcNM1AIFCyu+Thhx/59NNPr//+92PRqIpCNb8u9Un/ov7Z2dmWZbP0G6TrekV5xYqVKyZNnNRiTKIJ6S4s31G8Y9/evaYZgIynFvj/7X15fBxHmfb7VvXcMzrt+JBlybZ823Js+XZuQjgSriRAljPkgCWBENhwhBCufGyywMJmgY/lCLAsHwvLhjOEQEIS57QdO5Zs+ZYtX5J1W8ec3V31fn9Ud6kt2bIkj6yRM8/PP3s8011dXd1VT713MLhp86arr3n9MLMGoDt9jh49FggEyc2Bp3RcxSXFwVBIseBwWstZnI/eIyIhCkGM4YtbrGOv2r4Akswt6wUBISASSiYBiad8doDqbn/6he9/u/vKTSAQFFugE5ABCGBL6DWBKfuwqrUhofdpANtd9MmRJHSMt2FAUSFMmQylJRCLgc8AIpDSOQDG0rah2YIIpQTEYGHBr2aXvy0UtKX0jStbgMfc3dLSUltb5/WmRcR0Or3s4ou1mVTLEwUFhcsuvljZOfTxhmEcPHjw5MmTMKqlUB9/2pUOhzQOn1bnoO7Ltu3vffe7j//58UAgpCQGtXU97VB4m8qpaaKhR1vd3a5d9fffd9+hhsZwOKykQPDcCHPtQEJIKRwvL++CrryJAoFAOBR66smnvnj//cePH+OcKyFvwAiokZk8edLCRQtNM6N/NQyjr6/3pRde1JuPocUsfcCRI4c72jt8vv4oSCmlz+erra1tbm5GjyV/6NFQO5tt27b6fD6S/Wxq+Iwrr7oyl5/m8HE+CIOISBJj2CvkE79LyyQhR1RB1DkAAlJsQUSSSyYYTwWa1xx5+vvfO/zRR2VBHyRDgAjclSrIpYGOFJjC+exEqQcguRWSrwALAkkgAELvSu3QAyIEg1BcBJNKYfIkiMUck7iUDnmcsa8jGbMBByvekhIBKBgMT570XzOmXBsMWER82K4gYwc95V54/vnGxkOhUMi7gQ34A1deeQXnXHrSfqg+r1u31qtXQUTDMFpaW57b+ByeWy7CISSJUTT137/85d+ffDoajQKQV8uBp0YIIqJyW1K+mIZhKBvAae9g8EpKI3SQ1cM+ijtSZ3HO9+ze/dDXHuzo6AyGguQmh9eyYDqd7uvrk1L6/f5QKBgMB/1+v23bfX19lmXpHbc6kYhisdi+PXsf/OcHW1tbnaE49QkqrjV8vtmzZ2cyGW2xJyLGeEdHh2WZSjQZ+r6UOGtZ1ssvvaxvynt3lmnV1dXqqTH0RsHVrTUcO3pMdVt3taCgYPXq1WdtZELgPKmkiIAztvMVc/vfzYIICkFneZjnC4oqlI2buPQn/cmYVX/nn45evxEiCUgHABRVIDhhGC4B2BK6Ui5bAIBakRFkErr/AqHlgBxIAgMVLX6KZ61iDiLgHAwDAgGIRcGywLQgkwHL6g/j0C0P+DAcDLCuEwEgBoMUjfgDgV8VR94SCNhSGmebV+cBWgskhNhVXx8IBLSqlzGWTKbmL5g3f8EC8pgf9YfFS5ZUVy/dtWu38mlRP0khN2/e9MY3vVFZrcdXD+Dz+To7O5966qlAMKC+0RX9hBC2ZfdTI5Bap6aXTQ9HIoh47XXX1e/c2dHRyTgbWJCYXCWqS5/qM47E5clbFWP4rwF53L3a29sffvjhzq6ucDjsrXDFGLMsy7bt2bNnr6hZUTGrcupFU4LBICEl48mm5qbGQ41btmxpOdESCoW8blpCiEgkcrDh4H98//uf+/y9PsNHbg1B/ejV6C2tri4qKrRtW49AMBhsaGg4fuz4rNmztRVkiFtAxNaWlu3bt4dCoQHWBSUU7qrfde2118GQoqpXFN66datlWdqtWckcM8pnqKc5okHOTZwPwlBTWyL98a8ZvwXSj4NrcY8XHLZgRECB3vCBlccOfvzRvpo9kPZBOghIgBJUiWNHyaQWegYnM5Bx3OY8SzMBhiBZB31PQ+GbQaScOz3t0k+udgsAGINgEEIhIHIM45bt+FZpdtEnDuedG6DjYgzCIQyGyO8PM/hxNPSWgN92w7nHV7YAV5sMAA0NDbW1dV7CAAAp7fkL5kejUbUE6J0aumkHV9Ss3L69Vs95IgqFQgf2H2hqapo1azaRHN8bRCdYlen/qoBEwzBmlM+omjs3HArpn5RmZs2aNcpfaO7cuQ987Wvtbe3I0IkbJWlwo6e3+6c/+emJ5hPapMw57+vre8cN119x+eWZjDmcGBQhRCDgf+qppx7/8+PBYAiGPS1VPxFRCPuRRx5pPNQYi8U0WyguTyWT08qmf+ADH6iuri4uKRnQQvWyZQDw1re9bdvWrb/4r1+oEoH6MSnOeOnFl3776KP/8A/vGaCYQvelra6unjt3Xl1dnVLxKYGso71j165ds2bPhiFXeS19Hj5yJJ1OD45cUa3t2bOnublp2rTpqkbMaVtDT5n0Y0ePqYq5qj+c83Q6vWbNGlUvcqIbMGCsCUPHkCLivsP2nr+ZRs5YL9z9GRCT3DKkZLUfevbAzX+B0pMYDxIHYK5OqZ8O3CVYEJzMgCQw2MBWkQEx6H4CIuuAR0EK18jhuWVNM14a0Et8wO/IMbEoCAm2DZYFtg22DUI4aivdGfBILV42QgYGA4OD3w8+H/j9wDkhciF+Hg3fEA5abibacWcLjz6BbXz2mUwmo/VRRGTbYtKkSW9969vO1E8iWr7i4kmTJyXjSW5w3VRvb+9zG5+bNWuW3n6O1216L01EqWRqSfWSa665prp6WXFJ8RBBdkovNW3atGnTpg34KZVMhly3Y71Ztm27fMaMBQsXjqh7e/bukVIwhlIOizD0o+GcP//cC89v3BiNRAfUiE2lkpdedtktt90yZcpUAFBCgHf81Xo6Y8aMGTNmVM2t+u53vnP0yDEdeqIOCAVDv//d72tWrpxbNddrxNZ7BcMwymbM2LFjR79kKaXP59u+ffub3vzmoR1zwSWeZ595xjuM/ccA+f3+5ubm2u2106ZNJ0l4BgrW3HD8+PH9B/b7fD7dvrBFcUnxkqVLRq0XzTWMLeOpcnmSCBGefzZjxolzdGpOjCtUmAUgEpe+RCBdmNnyhV8f+NR/QzQO8RBxAHSs4KfUb0IEAmAIpoS4Cdyz4vcfIIEFIHMYeh4D9INbUmJgD7S3kvrjlQakawZHBINDMACxKJQUw0WT4aLJUFoCpSVQUgzFxVBUBEWFUOz+XVgIxUVQUgwlxTCpBCZPgsmTobAQQiHkHIhCQvwkFrohHLSJOKJyWhx38tbb0oxp1tfv9mon1B62orKyrKwM3Bnu3caqg+fPX7B06VLLtvRPap/+zDPPJBKJcVcFeFVGRPTum979la9+9fXXXDNl6hTFFjQInrAMZSvuh6qMlEylBixz6njTNIUQmUxGDAPqMNM0EXFE4gW5GXP/+Mc/ITI9R8itKL5m7dq7P/XJKVOm2ratVnZlVPDaaZRN27btxYuXfOazn502fdop5T2IDJ/R1dn15z89plVS3oUeAYioZmWN9igDVyxoPNToFXeGuIXWttZ9e/d5TQ79g0mIiCTpyNGj6NrtTwt1dUR8ddvWo0eO6mJfiJjOpCsrZ82YUa5aGPe5du4YW8IgQqEK6qXl1udMLlB5E43vsOmgPALhTwRbF554+l9/fOKGZyEZAMGBS23aGHCa4w1FAN1psN20HwOgVn/mh56/QXq3a/2mgdQy+KyB2i1XraRN5VICYxAIQDgMkQjEolAQg4KC/j+FBRCLQTQKkQgEg8C5FkeICIj+oyD8gUjIkqoWLarXPCtDOmq466NgjD391FMHGxr0jltNQluIK6+6ik4XXqB1U0S0evVq5vFmUUtST3d3/c6deM5l+M4dqqupVOp973//zbd8SKn7NT0MPl5rXTQvniZv7qkLol4fOeeDjz8TdKouomG9CZrPEHHz5s17du9WG2p9dcuyioqK7rjjzlAopGJlcJBLhWYFRRu2bc+aNfu2227zebRSiKgUU1s2b+lQAdinOrCpkVm+fPlFF0320gPnvLOzU4kdOiXUaW+BiHbv2t3b16tuwSvcICIgSCmDwdDml1/u6upED2MNfliKz44dPe7tp5L5pk6doq07F4CQMdaEQSQJATY9Zza8agfDKOV4r1AuWwBIIxk+fOXeF7/3vUz1XugLAwNgOrnsoDPRsRuDIGhPn6JQGnwk+sDuhq5fA1nQXwzjbK/LALFD/9E/ecnjrH+0AwyRH+gHsdAHwkFl5dayxbhveNypxYQQtdtrTdPUEobaL1dUzKypqUEPvOeSm5GppqampLR0gNE1nU4/+eSTQ282zwPICWpLXX755dffcL1yIdVuPGcCeNadMx4xCGc5ZairDOte0PVEIKLdu3ZZpjlgey5Jvu/975t80WSvwWlwf9U35HF2WLtu3ao1q1OplD5S/dTT0/P4nx8fQK6ISIhEFAwGly27WIkm6ifGmGmaf33iCfQIdmcaogP79ycTSebWrFVEovmDiHw+o7W1bdeu3QM4z/twHXkrkdy1e7dKTwCONtUuKCi44sorvILRsEY5hzHmKinOkBAP7rJ9GSI2zjtaxRYSJUhgqeDOG7dsfeARKuyGZBA4OWqoM63qagvGEOImCHGKf9RAoBPHl6iDvqeABft9d0e3xfASCQxvcruzgogA6NvR0IcjIa+Ve9xlCwU931pOtNTX16tsg+imVEqlUgsXLiouLj6tlhncG5RSFpeUvO7q16VTafToNPx+//59+48fP4aukDEet+hslqPR6E3v+Qev0X4i7jf182pra9uyeXPA41yEiKZplpeXr9+wYZi3hh4pioje/o53RCIRncIW3MV91+7d+uD+n9ww9bnz5nr3GerItta2VCrFPGmpBtwC57ylpWXTpk2hYEgv8UKI1WtWV1ZWKjUdujuS2u3bNf0MaE33qvHwoaOHD59iwBBiypQpy5evAJdiRzvqOYQxV0khg44e+fxGMxhi4yteaLZgElHy7bc8e+Den4E/DaYfDKmLep9eX0YEquoFAnSbYJ8+QLcfSI4BvOtRMI86iqms2G7OJIUM+KM8DYg40cPR0B2RkCUlB0AtzmehK+cKPf2I6IUXnu/o6NDxeoho23YsFlu/YR26PlSn7bU7Y2HJ0qWBkMdqCuTz+dra2nbv2j2+t8sYSyVTCxYtmjptqo4jmbj7TfXUDh06dOJEi/J5Vd8jYiaTWbp0qU7tNZx79B62cOHC2XNmazdZcIWzk11dHR0dp7UiIOKixYunT5+uCmeBu1FobW093NgIAINTcWjp4cjhw81NzT6/T7+EiPie9753ztw5imz0KXv37jPNjNe119ua+rBp0yY15/QBUsqKigrmZsacoI97AMaQMNRiQATb6sxUo2Dj6k3rsgUhITP9tbf+/fBdvwGbgc2ByaEECwWlUEKElA0JE9hZfVvVku0Dqx06fu5RTGXzps4AUmlYgEASfS0avCsSst16qzm1TnmXzpdfftnn8w3Yrs6dN2/NmrVagTNEI0Ry0aKFixcvTiaTTguERGQYxhN/eSKRSGifmfN5gwpEREBz584NBoJyguuyNZ2fONFscINI6mVaShmLxZavWKGOHP5tkgeLlyweQBg+n6+zs6OhoWGAUkgprKSUM2fOXL58eTqd1o/YMIzOjo6d9fWn1UrpV07vJJw9h6SSkpKysrKLl10cK4hpu5ff7286duylF1+GQRKG7hIiHmw4SNi/AUJEYYu169YSjc9bN0YYK8JwHi0RIu540VKJm8drpdJ2C0aEtrH91r8fvv2PkDaAGHCdXmnoJsj1jxKQsR1P2aHhWL9DkNgCvX8FFnIaOasBfPRQbsIISJwASP5zNPjZaNj0Wrlz5t1VnVGiQ11d3bGjx70VqgFASlldXe2VQs7UDjqxF+FVq1cbOq03AhEFAoHGxsbDhw/D+O3yVLDIzPJyIkJXXX7+u5EV6M43NTWBp16IIxEWxCoqK2GEWxPvsl5RUeklDETknPf29jYeOgSnrtfqg1rWy2aUGYahxVBFMzvr6jSLaOglPpVKPf/882qPAgBK/7l23TrDMJZdfHHFzIqMm7mWc55IJvfu2eOlMd091VpT0/Hm400GN/T3qtjXwkWLNCeNZrhzD2NFGHooT2bk/nqbAdE45QJx0n4AEUpMB7e/7/nGO34HFnO+BgQ6G1uAG+sgCbpNkOB43J4VKsEU+qHzV/0eU6f1rcoO1L0QEgoSn48E7o2GJZFPWblzT7wAUGsOPvbYY319vcqjBlxtckFBwZVXXQlnW330r0S0cuXKcDhk27beCCOiEGLjM89ovjz/lKnsqEXFxbqf57kD2YV6EB1tHd4ngq4JuiAWg5GIF942EXHq1KnBUPAUgxMCIuvu7oZTLQFqMBUfLK9ZEYlGtfFDSunz+w8dakwmk3AqzeiO7dix4+TJkyq8UW1cguHgylUrASAYDJbNKCMPk/l8vsbGxmQyOUArpenn2Wc3trS2+H1OMnzlWzx/wfzS0hItgoxutHMNYyhhqGyDG18xjx4UQT+eJ33MgG64SaKISX9feN9124/c+ShYDCQDVPFuw2YLRDAFdKWBDcPfyYFSTHGQSWh/BGQvMN+wvGxHDDdoHMkHQFJ+LhJ8IBq2iCBXTazk5q3r6Gg/eviIrjwBroNTzcqV06dPh2GsPnoOl5eXr1hZM1gJ/sorW9vb270G5zG+uVPgLG1el82JDDV6iVRCzSz9pTIaBQIBvVkcfpt6SS0oKCgtLR3wBBExk84M3qrrq8ytmltZWTHAuba7u/uQK5fopV8v8Xt271Hyh7p0JpMpKyurrKxUh11x5RXeNFahUGjHzh379+3zTiX1Qb1UR48ckZLU9kf9KmxRVjaDc8Obh/ECwJgQhvNUAICgtVbIbgm+8ZEvNFv4kv4Tqxr3fep/ACUIVxM1HLYAbcAASNqqCNQIRAR0Q/lS+6DjF8716NQw7yzAyZjLCC1Bt0QDD8bCAGC4m7Ic3OM4Uwhh+/bthw8fVulAwJ3eUoolSxcr+eCsqw966kBcffXriZzSdeBuDzs6Onbs2IGeFA7n4w5P7eGADxMdZjqjlH7qv4iIhJxxXfB1RK3pVTgQCEROLRqBhIyxdCYt3KpKGt7lu6amRgjp/QkA/viH33ulOnS9nlKp1J69u72dt227vLy8tLRUXXrp0uqp06Yq3nJeJEm1tbXeDQe6HsZdXV1HjhzRDrWIaJrmlKlTNmxYD3B6r+KJizEhDGcoOdpArSckZ6rk51hcaig4MW9IhsU7pya23PtrUdwFGR8w1312mF0iN+q7N+PYk0cEBAAJLAw9f4OePwELOW1mjTMcDy4foJTyY9HA/42GLXKV+zm5SJHrgG9Z1tNPP80518V61XxeuHDhpZdeRqcWvh4C+pjKysrymeVmxtTfKMf8LZs3W5bJzhx+Naa4YDaY4A617ZbO1d8TkVJ9juJmEZ3Ip0AgoKoMUX+5DMckIKUY3LK+3Lx586Q8Jcs9Ih49cqyvr08bw7V4UVdbu2vnLl2WShmZrrrqKn1uMBhcsmSJ8rxSbRqGUb+z3qv/1FBGMm8FVsuyKmdVzqmqknKcE19mHWMlYag9R1O7eHWHFQ6OQ7yeq4wCBCBp7Pron615hyAZAi6HZeXub4gAABiAJSBp9X8zAqBjL2F+6Pw1xDcBDwHILHAGueEdAJzIEvK2iP87sYgfgAOopOVjZmA/J+iJ3dnZ2bC/we/3kyeRkRBi8eIlKp8duMqroUFECGjbdmlp6SUbNpimY+1UUkUkEtn08qZDhw6Nlzv8hbTHVNCGIg1C0sayUTSI5GwXHBnFMz+H1qmqK86eM6dqbpXKdg6ur1QymWw4cIAGZVw/cuSo0kepZqWURcVFS6ur0Y0iZIwtWrxIn6VaO3LkiFfHRW4W5M2bN6nOa8UXY6yystKrvBrFgOQmxk4lBUS0d58dPyQwMA4OtY6ClUlfMrD/Ldvar30ZkgHgikCGzRbgiXtI2pCRwEYuYYAT/gDIQZrQ9gNI7wMWBBLnyhlO1AVxQCHlHeHA92IRQSSJGKI2B4+y8TGDd6/320cfVT6veoFQCSEuu+JyADAMY/hZLhhnPp8PEddt2FBSOsmyLO9m0zTNnTt2wsjtsXkMgHqjpCeo3vkeRileeJtF9/MA2YXc5E6Dz0K3IOO6det1NAYiGoZx8uTJuh11etFHRERmWdb27a/qjMhKIJg3b55KealpoKamZu68uTr6j3Mej8ef/OvfvIpN9Xnvnr2Gz/ByAyKuXbdOdy8H5+CoMSbZavUA7amz/Wx88qEqZRS3eKI0cfA9TwG3wPS7KQVH1JDKHsggI8CWYIz2Rhxjhg9EF7R8G6Z/HnzlIFMAXMfZjaxXLnwIlhC3hvzfK4yobfoANWtOwTVRSMZYb2+vjqHVD0UIUVZWxjk/ePDgSN8cPWljsVi8r0/5wGiVwlNPPnndW96iU0/n4OBMCLjqRH4abqCzBbQO0azrtgiDA6qVMRlp8BX1Eyei6WXTVYp7VxlLhmHsqt8Vj8d1uV/G4HBj457de7QGSQVzXHnVVeqDQ4dSlpSUzpo162DDQS2aENGxo8fUq6t7cuLEifa2fn8KRx9VWVFVVaUFjgvpTRsTwiBSWhjWfEAgA3DcV88riAgZoeXf/a5n0/OPQDzYr4waYUOACEJC3ASAEfONFw5nhMA6AS0Pw7R7wJjicgaMjDPUkSQZMkvK28P+7xZElN6X5/bbia6BWimFW9vavEmtAcDn8zU3N3/yrrvP5Y3x+XzetOFExA3jxImWbVu3rd+wnk4tyJPHiKDGzTAGhlISkSRHBziKgXWWfkFSDEwDg07e3tNIMOjavQBgafXSSZMntbW2qUevMhYfOXykvb1dEwYRbt26VVULVy2Ypjlz5sw5c+aAq03SEvDChQuf27hRMZBqrfFw46FDh6qqqpQvhmEYf33iiZ6enpCuaMJYJpOprl42QF65YJD9myEi9Wwl0YljAhmdf4O3sqBy00hO6j1+9TawnSy5o9GMKbVPRkBPBvg5p2ZHBBLAgpDeBy3fALsNWAhIOkZ1orN3kfpT2BqIUoj3B30/LIwagOAptnpOnRxL6FlkWdYLzz+fSqYGmLVV5/0Bf2C08Pv9A7TeiMgZS6fTtbW1F+S+73xCjRv3JBWHfrW+u7sf4Ruoj89YGa0F8v7KDeNM9id9xcmTJs+fP1+ZvgEAyQn6O3GiGT3Yu3ef4iRwHbgrZ1WWlpYMsHMg4mWXX15cUqJ9pXw+X2tra+327U6XOBdCHDhwQLruW+pcIUT5zHJyDSejGOFcRvYJQ8W3EeLzh+zedmlKlVoCAAAgAElEQVTwcXCoRZUVSvDjy4+J2cfA9DueUaN7fEhgCRBKAjjnN0DJGTwKqYPQ8g2wm4GHPfaMsxnV3bg/BmAL+kDI/+NCR7Zgntf9XDs5xlDOiK+++qrK/Oz9SfefRosB7SgQUSAQ2Lx50+HDh5XyIZdpNffh9/uBBuo8pZDCtkfRmn5Ypmmm0ikvNxCRJBkMBM9UQ1Cdqx79ypUrOXfzBaCzrP/5sT9rPVXDgQMNBw4okwO5uWmXLF3KWH+5eM1ABQUFixcv1gXYpZR+f2DHjh2WZalcNS2tLe3t7X6/XznUMsbSyeScqjkramogJxXC546xkDCQJCBR7dNmopc4H4fyFyp9CzE4fN3LTgULHFU31JtHAKZbjTUrUHIGD0FqHzQ/BJl9wENA4uxx4K5swRGllO8K+f6zMOoDJCVbTASqAHc7uW3rtp6eHsbPk8BOKinQ8SZl+gbPrjaPEUGNWzgUHpAaRKnvM6Y5ipdQM328r6+rs1OnTAdXhxkI+AdsCAacrjpQNXeutzUlFuzdu7ezs1NJLVte2dLa2qoMGIhommZZWdnll53iwK3ph4iqq6tN09TFMPx+X8OBhqRbletQw8Gm403emFPLthctWjxlyhRNPyMf4JzGmKikOJJE7GsU3CRi4zAtCYhJSEUzVlmLmxlkVA1pc3TCcv6bNSjOiIB5HJofgvgm4FHnS3JTTp3S6f7KfRxACHlj0PefBRECkLntQeuFmnWMMdPM/OEPv+ece3ep5Brqswhvs1LKUCi0ZfNmXe8zzxmjgBpVVXKcTlVJpTOZeDyuF+vht6lPaWlpSSQS3lyT6sEVFhXC6VLP6mPU05w2bdryFf2JCJ3vJTU0NACAEOL40WM6tNA5Zfq0wqIiOlWTpplj8ZIlkydPEpZTYpYx1tPd/dzzzxGRlOKVV14hIk2cUkq/31dZWaFfuQvvBRsLlRQhQ1tQvI+AIw6vkleW+wCIhDJgSkMCIYy6yB+5KaSSdpY9g1HbwINgd0Prw9D1PwAIGACSAEqg8cg0rpGDIQpJbw0avyiMBhEVW+SsB60Xek4i4p49ezo7Or3ZBtX3lmWls4dMJgNwCiH5fL66utr9+/ZBXsIYLdS4TZ8x3TuASvkT7+s7fvw4jNxEpN/eo8eO9uuUAIhICBGJhCtmVugjz9QrIYTf77/88iu85e0YY8lk8tVtryJic3NzbW2dNkcDgJRy7bp16r/eGaQ+SynLy8tXrlqdSiU1AxHAc88+h4jxeHz3rl3eiklEFAyGalau1GyU41NyFMiyl5QaeWDY0S06OqSPj1vCQQJEyRhKJxCaRhKs57YCRMCUQ60YK8UaCWB+IBs6fw7pPVD6DxCYB9ICmQFk/XowBCBgIKWANwV8vyiMBBjzevjl/qup5zARvfzSy319fdFoVH+DiLZlL168ePJFF0kpzlGPSQCMse7uk7vq64n6N4wAIIR84YUXFi5apEcv94cud6B1NdOmTbdtGxkqAzI6aWV7ardvX7FiBXgEu+G0Ce4avXvX7gH6KMuyJk2aNKeqCt1KqEMIGQAwZeqUwsLCATX49u7Zk0gk9uze3dHRoct1CFuUlJSsXr168Pqu6YRzXlExk7l5pVRrJ0929fR09/b2dXZ2ISIS6nD0xUsWl6u0xDm/gRsdskwYiCgEcaTjrfJIsyjwgRiPnIMISEwG+kLYdhFWtlCGAZMwzMS0nlYc0SRjg4ARxvsN8xKOdywgAwxDYhuk9kDxOyG2AXzTgEwg4RIeADIJ4XeE2Y+jPIZMEHGmi79OAJCbbbClpeWVLa94Nb9qunIf/+idH62oqMzWFXt7ez/6kX9MJBLgXbkIdtbXx+N94XBEDkpPlMfQ0AtrRUVFLBbV7kbgCHD+nTt2JhIJ5cY6nLElNy4HEZuamg7sP2D4+hclRBRClJSUTJs6dWgG0jLBrFmzymeW79m9R2X+UO6wTU3Hjx49Ul9f79VHpTPp1WtXFxUVDW4ZXR8qRFy5atVvH/1tX1+fEogDgUBTU/OOuh3Hjh9PJZPhSESdohz/Vq5cqanlgiSMLM8WIkIgBOg6KuxWAt84xHiTQxjgs9nCf38TnQyBIYBGXr/I2dojmBLkWK7L2qGWBYEs6HgEmr8KXf8PMkeAbEADMADoRxDQ8/gKe3MJNzIkHP38WPUp+9CzqLGxsbm5WROGWlkSicTVr796xoxyIYSuXTNqqHwh0Wj04uUXq+hffa1QKLR/377nnntO+0rRRBrFcYZel8vKytasXavLVYHrh3bw0EGV51E/i7M2qA5DxP/9zW/6+voMbgw4q3JWJeOc5NlzUKo0MEuXLvUql5RWau/evcpBzkmng2jbdlVVlSqkcSapRVXNmzuvylsuXgixcePGl154kbmOW/oWZlbMvFCVUQrZJwzGkBD3HrP9qOIhsnuFs0O9gByx10xfzeZ9wXwvyAyCQGCuPXm4LanmwJZjvpFXnKFEDR4Dswk6fw1NX4Cmz0HXz6D3r9Dza2q6j7f/8P6D37y385kAMywpZK6mLh8McrMNCtt+4vHHvboFtYsMhoI1NStHl+t0MNBN9fOGN7xBWVD7tVIIUsg9u/YohQNcoDvBMYIWCAzDWLBwobeOIbkuhT/+4Q/j8Tjn3JuLaXA7/ewuBOd8V339iy+8qP2X9DHBYPC6t1xHHtvyEB1T71VNTU0oFNLu2kQUDIZ++YtfHj923O/3IyECmhlzetn0NWvXnGnukGdyLV++gjyuE5FIdNu2bc3NzYFAkFw9VSqZWrJ0ydx58y5gtoCsE4aamUJSW4PgPiQ6rzYMJ68AIOOYjsO0Vf5//DfjgalXPoIf48QIBRADGLac4bxJCMKNlRtToI7dk8ACwAJAFphN0PVHaPsetP83pA8LFgDbeqjh4X/t3Bhght7X5P4Lqvf4jY2NO3bs9PtOqQVtZszyGeWLFi0i17sxKyCiOVVV8+bPT6VSeojUJvSVV7Y0NzXB4CwUeQwJNbBqXV6/fn15ebm2FmB/dFvbT3/yEykF59y2bfCIEaoR70srhOCG0d198kc/+lEikdB+EOTmIV928bKZMysA3OxwZ+6YbrZy1ixFPN6mLMt2lnJlb7CtqqqqiopKOkNGZP3GIuKSpUsMg3umm+NFgy6HIaIt7BXLVxTECsSgPL4XErIuYQAhCZvirRI5wfnNCIJARMQZZfrk1KX8vq/HZpcaaWHfEtrwH8atYGcQhTpqWHIGujwhabgl9rJwD65VAwiQARrAQsCiwMKAPgAC5jOEec/+r3+m/XHOuElCUr8C53z0cOTQ3UPEzZs3W5aFnilKRMhw/SXrCwoK9J703K+IiCqP4aKFC2zb1m+iWiC6u3teePEFb9/O8YqvHZCbP2PSpEnXvOH1mUwGT/W8CAQCj/3psZ/99GfpdFoRgHezT649WS2shmF0dnY8+LUH9+3dpzyOvPRjGMabr32zElaGljDAQ0sFBQXrNqwzTbPftYmIeVKvq1uYPXu2l1RO26A6ZebMihU1NSoE3XuwPlfYIhKOlJXP0ONwob5RWZcwAAktAW19xBmet0FzZAtCxjGVpKKlxue/GZt3ERdCBhi3pH1rYMMv/J8MSI4gEYaZKQQdn1pbnmtGkJHilImhYi20f620mYFE3zj4/Yfa/hpgBgG5W6cc3dS4M5b19fZu3rwZ4BR3FCIyDL5+/Xq9Qzz33Zl3I3ztW94ydepUyzK9k9kwjG1bt6ljLuD94FhAr4ZSymuuecPCRQvTqbT21lN/RyKR3/zPb+7/whfqd+5UGcsHCH/qy0wm8+yzz37m05+pr68Pe+omkWvWuurqq1etWj2iIDhll7rqqqsYOyUKx9t5KWUoHLrs8svBE/dzpgaFED6fr6amRifb97YGrnhRVFy0bNky8JQsG+0A5zSy7lYLyIBsSncQY4TnkqpvmFdUIQ1ARMA4puN00ULj01+PVU03hJBqNTCA2yTeG1gNyN6XeRgMAuKObmroHiKCkGDnkicSIpAkZnAS9zb8W6dIfGPa9RbZQMBcWsu1l1WxAmNsx86dhw4e0ppfAEDEdDq9avXKGeXl4FEsZOWiqp1p06ZVVM7s3NppGIb+yTCMgwcPvvLKlpUrV2lfqVwbt1wGIkopCwoLP3TLLV/50pcHSAaIGA6Hd9XveuCrX501a1b1xRdv2LBh6tSp6gDbto8ePfLiiy/tqKs73HhYSqmjGUCxBWfJZLKqqurmmz/opfmzPiDdh5KSkkmTJp88eVI/dO8xlmUtWbKkvLxc89OZWtZcUlFZUVhUaJnWYNcvNRSLlywpKiq6UAO8NbJJGFqe2N0kZFJ6ahyMIRAcp1PGMJOQRfOMz34jtrDcsIXkWghF4MQyZL3Xv1LCXR82f2gxU4JBJM9WHoNAENji/KrWzgZEICmQAcE3G39UgMb9U99qSRuA6VybufbKqklVV1tnmZYuReAoN4DefO11PsOnCtdkq+fo1i1gjL3+mjds2/oquu6biMg57+np2bjxuVWrVmflcq8p6GcnhFi2bNltt9/23e9+NxgIeo9RcfWZjFlXt6O+ftejv/nfSDSi8shm0ulEIpHJmEQUDAa1n5LiBiV5FBYW3PnxjxUXF49oCdYCxEUXTZm/YN6zz2xUek7vMSrh4NLqagCQQgLCEO6/Wk5dtHhJ1Zw5tdvrwpHwadVNq1ev0huj4XR1giKb94auCuql/cIUo0veNGKoIAXGMZOkkip+77/EFlYYwsMWiE6WpQD6LCne71/188BdQjBC++y+tsoKLel8q6TOCtUxxhjyLx76v/c0/crHDAKQOWkDV7Ooqbnp6af/HgqHyOMflUlnystnzJpVOUB1kBVobcOKFStmzZ5letIcSZLBYLDhwIHOzo6RumaNVD09dupsb8vneJWRNqU1S1LKN1977S233pJOpzXlk6fqSSQSUVuEnu6etta2tta23t4+IggGgyoruDdNrHKBjUajX/zSlxYtWqQNyMO8O/I4cS27eLlKCzjg1oQQ0Wh04aKFAEBwlufe3yDny5Yv58bAKiAOSXA2s6JiRF2doMgmYRChSvvXvt0mi/D8ZJEiYhwzCVlQwe55MLa0yhCCGEPlXuuInK5TuIHMJPFO39KfBO7yyTBH0/G1hTPYM0g7L+XWEgzgcIZEZMj/9chPvtT8KGdMkvQGMYx3Fx2ozmzf9moynvTmHFXK3+XLV1x00UUD6tJkBej64UQikeqlS5Mpz9UJ/H5/46HGV199daTDNcQScybbKWTVHUs35e2J/jz8qxD1H3yapobssPd2pJQ33vjOf/r0P8UKYn19fWrd1+3oTLGcc8MwDMNQJo0Bd6Gefm9f75yqqi99+UsLFy0SQnAP/QznjjSNAUB1dXVRUZFKTq4P4Jyn06nlyy9evGQJDaNivL46ES1bVm0MIgzOeTKZXLNmTVlZ2VhsenIN2SUMFbWH0CyRgMY+rzkRMY5mkgor+Kcfii2b77Nt6VoxPbap/r0m+pGb0v6Qf/mv/Z8QMkJo4RByBoLrUJsri+8pcDiDMfR/9fAP7z72c4NxZc/JKTlDdebA/v2q5LN+IEKIUCh0xZVXeqzd2eyznuoAsOHSS4uKipWQgaj8IZExpk3fXpstAKgKOU5vwdk5WpYFZ1769W5U74v1HQkhMEvpDp2dOKIU/YVC9dI8IjczNUeISAoJHoGMCIQUNOR+WR+s1lwp5eted/WXv/KVq6++OpVMplIpZSJWxXMHP1l1ImMMkQGAbdvJRIKAbrrppq888JUFCxfats0Yg5HbtPRznDZtWumkUmV1UM/RfYhiTlUVH3bYpr7TWbNmT506rf8Vcm/Ktu21a9f6fD4xqGzthYesqqSAENECStkEiDjGSUFctpCR6ezuf46uWOwTgjx7l9NcXP3gQ26TeIdvwSP+j6MsIswgeuQMOuUER8LI2ffAlTM4+h4++p/3Nf2SIQMASVJ7jI53Fx3MX7AAETOZtGlmzEwmk8mYprnhkg3z5s1TflNZ76qa0krjtGTJkks2bFAXzWQyqgcAMNdNiI0emy0ALFq8SEqZVr01M+l0mnO+es0a78GDL0dEs6vmxGJRlfpQY+q0KTrF0LnflBAiVlCwtLrasix9iWQyMWnypFmzZg3/KqrM6urVa6bPKEskE57+phYuXFhQWHjWppyZ5tJ/VVXVPZ/59Jcf+OqVV10ZjcVM04zH4729vel02rbdMAhwqDeZTPb29iYScSFESWnJ26+//l++/vVbbr21pLhEVcTDUXlAqM4ordSHP/LhktIS9SzUY89kMqtWrXzjm95Enoif4TSrLPMfuPkDkUjE1G1lMslUcvWa1atWrx6OvHIBIJuzVBIxxB6LPndLz5E6KxBmI03GMXwQEWNopSk0Be95MLZ6hd+2JHcKbp/lqalbNkEE0PiD3fBe898T0IUYIDq1hiu5xVkP9UCfCeercsNoQASIDECK9J0zbnq44hYVa8LZudSNymLvnK33yy+91NJygnMDAIQQxSUll156qc8N4huLyeYVMjLp9AsvvtjT080YQ0DbtqZMnXrJJZfqA7wfbNt+6aUX29raDG4AgG3b5TPL16xZC2cmDLV6MsYOHDiwY0ed47Mvye/3r127btLkSdm6TdWBVDr10gsvdvd0qwtJKRcsWLB48ZIRXUU11dh4qLa2Vn0jpYzFYpdccqnKxTScdvRhXgN1S0vLli2bm5uaT57samlpPXnyZCIRNzMWIgSCwWg0WlpSOmXKlOKS4orKynXr10cjEVCimKtTOhd+1YNw9PCR7XXbpRCITEhRUlyydu06ZUgb0Sipf5CxxsbGHbW1kiQgSklFRQVr165XubNGx3ATC9kkDCGJIXT30udu6zm+XwSCKMfGu4iIkKNIkW8SfuKh2GUr/UJIxtSaOexGgISUBuNP2AdvznyvFVsZBtV74PhNObmkAA73QmcKjNMX/MoVkCPVkUjcXfHBb5V/EAkESI657hU+1t3L4kzWjQzR2hB0kpXbHPp2RnSV4TQ1fM4AT+jcgJ17b29PV9fJZCJumhYowohES0tLw+GwPkb5MukTz5Ethm5kOM9x6JZP+32OT7SsINvZagF7+kQqRYw5hYuyDiJChiJNvBg++UDskpV+2yJmnCZIZ4gWVGc5MpPEG405j8JdN5rfbaETDIJSSmAAhI67LmfAmVOaIpffBnRsF4YR/bej/5US6e9U3MYBhZR8vFOg6+k0WEXmLWQ0dt3THRjgYak10YMljMG9Petapg8eXP/VGyGcLd460+2MYu982g6PSEmoR8zbDc0BBQWFBQWFg8/SEeDKnkEeM9K5jJK351l5Ft4Whm7wgkfWCMN5Wxic6KHuJHFGyoqQ3TVAsYU0iQrwjq9FL1nnl0Jyg43o7XKmPRAC+oBZUmwwKh/Du9+V+c4hOMYxJFR8hkQVEwiGigzPYZWUAiIQ2QjIQz849isb4TsVt4WACZL8PLmsnalfjnngTPNzTJlMN67sGWc9Rn8YaW8HNzIWGM7tjKKpoQ8YUWugLfNuRIIuMeQ92HtA1rfn2X0W3kYueBliaGRtEUQ3CqO9S8YT0mA4/Cx/w4RiC7JIRPDu/xN9/fqAbUtk/dvBkXVY+d0SGshsEjVsxu8Cd82FCgEpBp46E4TAPYWMchxKzgAwfLFHjv/mHxu/bwFxYJKk3jOPdxfzuPDh3SKg6xDFPRiQYhJe8wvxREHWCIOIlArHbJWil8DIsqlVsQVYlArChx+IvO7SgBBSpajRvoUjbRMRCQkQOTCL7GpW9sfAJ+fDLAlJhgzATT7o58AxRz1rB0O5+gExHv758UdvavzOSTAZoE0SEWEcCpTkkUceFwiySRgMAIH6uqRhI7HshLq5WQUJGYJNqQB84oHoW68I2jZpVem5bE0QEIgQ0UBuk1zAL3oscPcyqJKUNIA5pu+IAQbLxdi9IUAkgZgv9tsTf3x/43d7QBqMC5JIjjw23v3LI488Jh6yqZJSBUO7k8QYgMyOwRtdtkCbejjc/MXIm68K2rbkXFt5s+DYrjIEcESbZBWb/KfAp5bTfJsSDA2QBH4OYR8ATAytlIJycwTiLPLn5sfefvBb7TLNgQkSKrFtnjPyyCOPkSLLuaRsxJ4kcaRsOf87bCEoweljX4nc9MaQEMQYeLWf5w5084hwRJtEOS/+XfDjK2GRpLiBHIgg5s91L6nTgkggMSP6bMtfbzz4b12U4cgFCVIhvnntVB555DESZI8wCAgxQ9SXyE4lDFJ2EUQU1CXpvZ+PXv/GkG1LldUh6/ZbR7tFyJEJkhW89C+hT10Ky2yKczQgbABDN03IxAEiEEggboSfa33y+oPfbJEpA7mQpG42L2fkkUcew0f2bBgIiChsSMcJR+bmeqYWCREZUR/A7fdHP/C2kBSSc/S6V5z7RbxQNnBEZMhsKSZh9BeBf1yJ1UL08kgASkMgJqCQgQBEAogZkY1tz9zQ8I0OkTSQCZJ5OSOPPPIYEbJnwyAAIkwTO0k0MKXjyKCidwARJXWadNM94fe+PWSr/FRjIFt44frakpIzZvLiJ4OffD2uFhD3FYQd59oJt8CqfFNAjIdfat/4joavHxd9BuNCSiDIyxl55JHHMJE9CQMAEKVNVlIiO6dEtUgEiJwoLuDmz0VufXdYCsm50gmNeR5WRCREQOSMCRJFGP5p4Pa1YoUVS7OCIFDu1cYYDrQN3Ii80P78Ow98vUPEDeaxZ+Q5I4888jgbsuhWCwBgS0zaiKOtH0EqmzgiEpxM0Ts/EfrQTWEpyKn/PsZUoYFuji1lIi5jBY+FPvZGY4OcLHxgAE3YWAZHNxXd1PnSW/Y/eNjs4ozbKr3EhFO15ZFHHucdWXSrBQCwBaUzko82LBqJEIEBxU16993h2z8YEbaEsbFyDw1STrtEHLkAWcrCPzNuX1d4mVVsMelJTTix4NjAJTcimzo3vavhX45bJ32M2zIfB55HHnmcHVnOjySI0hapAOqRQmW5ZAA9cXr7HaGP3BqRkthYWrmHAOpsQggcmS3FFBb8Q+ijryt/kwxkDIkTJlnIAPTbwKOvdG19+4EHGzJtBmMmCczlsh955JFHDiDbhGGjmVGlvEZ4plNHDPpS8u13hD/y4bC0nVSX47vzJUfOYDbQZAr+T/SjG8rfZEOcE0xYzkAgkiSYEdnWtfXGAw8eyLT5mSGkyLWaS3nkkUdOIcuEgYIoTchGJmA48RZIvT3yzbeF7rgzwgiAI2N4HqzcQ0MLNwYym2QJ8T9N+fj15W8TMoUTmjMQJRA3YnXdO9914MEDmVbOuE1ifEc7jzzyyGVkmTBSKcIM0ggFDLVGJeL0hluCd9wZYYKIiOVSQRJXzkBBVEz81+V3fXjGu0mmlEPXhOQMULopwYxIbffO6/Y9UJc+5mOGJcXgUhB55JFHHpB1wjiZIiQYfjVvtSwhUrxbXvHB0Mc/HfUzIAZKtshu384FOgMzRyaBuIQfVNz+kRnvJmkykqhT204sIAKh0k3t79377v0P1qebfCpHoRvyMt5dzCOPPHIIWSaMnhQQAgwzDMO1WyTidOl7A3fdHQlIVed19BnLxw6ONQWJIZNAguR/VNx+3+yPSGQkMxz4hBQ1EABBgmBGZF/f/mv3fnlz8pDBuCltXdZtvLuYRx555AqyTBi9SaHW+LOu9ORYJyjZI1a9O/DJL8QiBhBo2SIX1ylEBAKlLmOAthT/Z9oNv1r05ZLgVGHHGbheRhNskXXkDOSRo4nDb9v/tU2pRj8zBMk8Z+SRRx5eZJsw0sOyXjgVHJFScaq5IXjPZ6JRAEEwLh60IwJ6wJAJKd5dUPPUogc3lK6VdhKkcGhjYi2yjlAoGA+3Jo5dv/erzyUPGozbJPKckUceeWhkNTUIQF9qOEul0jdBqpfmvy3w6S9GiwJMkspxOzFsraqfTHEGyeXB6X+Z/8WbZ93sYz4plPcUcwZiAtyNCwIJAnnwRLLpjXu/9Hh8v48ZFgnlwzYhnkseeeQxpshepDcAAPQmz2LvJiICZIxScbnoWv8X7osW+VEIYoyNuwft8KFtwsoMbksRw8BPy973TPW3Nky6lMgEkUFkCDiRYsJRpUSRyEOpVPsN+x/4c+KA0k1BXs7II488sk4Y8cTZHKQQGUKql2a+wX/vl2OTwootlHvqBKAKL3RQocG4BBIkNoTn/GX+F3604L7JkTKykyQyHBC1tDEh4OimApl023V77vtDfLfBeF7OyCOPPCDrKql44jRJQZwvVCgDo1Rczrna/+UvxyZFmBDKbpGjVu6zol/UAFDqqRjhbSWXbVvy7Yeq7qqMzBQiRSLDkPdXIMz9NZdQkgQWALPnhr0P/Klvl5IzMC9n5JHHaxtZljBScRosJyA49fg4w1QfXXSZ77NfiU6LoS1IWbmVLipbPTn/cIzgpKI0wJai3Cj87NS3vrzkW9+ad09ZbLa0e0lmgKQBDJEB5DZtKBs4SWQBaZ58654v/KZnu8G4mbeB55HHaxvZmfxEBATI4LZP9TQ/ZQfDp5RoVSWHOMNkXFZe4rv3n2Mzi7kQkjOmrj+h2UKDwK2t5BYs4sAA4ajV/XTvjn/veLq+u86yewG4wUMSQIL0nJyTtfxUNkiRMXwFv17w+XcULLekbSDHXArCzyOPPM4bsrZbJEHI8Y6bTx7ZLgIhD2EQEADjkOqVk9caX3koNmsytwVwptbVC3DZUUOKiJJIgPChob7/W3zfH7q3/KFrU1NvPQAHFgA0GCICCpA5yxmADKQN3Pj53M+9v2S9JYWBLM8ZeeTxGkQ2JQxgcOeN3UcaRCDYTxhExDmm4rJ8le9zD8VmXcSFkIwxFatwAS84RIT99U8JABgyAGiwu1/qqX050fBo18vtqRMgLSAJPGgwHxFJVQM2p4aGiCEjaRk88Mt5991YvCovZ+SRx2sT2SRcgSIAAAQ0SURBVCEMKQmQGOJHb+w+esCVMAgIiHFM9ckpy4z7v1EwZzq3BbmyxQWiiRoCDmc45WtRkBQk/cwROPpE5ve925/sfvVguumlvr2QbgNmAAsg83kj5R091zhSiHpDlJyB7Ifz7rm99ApbCp6XM/LI4zWGbEkYEggJ6Y4bu48dlErCULJFOkHTlvJ7/yU2Zwa3beL8wpctTgsnyyKCIAlADJh3nf1jfFdtz+79mea/x/e1xA/2m8QROfoYM6TTBMnxkj+UPUNayIz/mn/ve4rX29LmeTkjjzxeS8iaSgoBbaQ7r+8+dkgEg6iK5aXjctJ8fv+3CubONISQjOFrRLY4LZRV3OtlJEHZxlFpqwCg1Y43m+2Pxut39+47nGlrMzua0q1g9wEwQA7M4OgD5KQlj8HuVmNHJ0SADKUAlP9edffHJr/BloIhy6lE9HnkkcfYIZs2DAvhYzd0Nx0U/iAgQzNFJVXs/q8XzJ3NbYu4oTxoX3OyxZng5Q8BEgAMYANGp03EH+l5tbl3f7Pd3WX1HrHaG1NNYPYCckAGyJx8s4gAjCMiMIdG3L881KJ+OLcHoG3gSD+Y95kPl15JklTR9dG3mUceeUwQZI8wADIEn3hn9/GDIhjGdEIWzWT3PVywaLbPlS3y+9DTYIDY4c0/RQDKMVchSVaH1XfY7j5ptj+bPlqXOGamW5tFX6cdt+1kUppAFsgMSNnPJcgAOCIawACZSjtP/dmA+8llqJeATk0+TIRKzgDxr1V3f2LyGyVJNkFyuuSRRx7ngmwZvSVDlib5kWu7O08IRIxOZ1/6dmzBPMO2ifM8W4wAOjgOASWQ8rg10I348x4JlJZCgOiwe7dkjj2eOtaXOGZmunop0yUytsykRLJTJOIyA9IEkQZpAqFLJwwQnQ8AADoUXT8jdP865am5/0GSNvBge83PJxkRKYmxLGc+ziOPPHINRlZaUTEHAYYr3u7/y4/Tk6ayT38ztmCeTwiZZ4uRQlf3IyAk8CFXOiVJBEASAAGU+ICIIWYAGFH/5Er/5HfFVqgWCKBTWrZMJ0WyXcTbZeaknQaZliLdJfpOiL7jom+PFc/YvWj2WSKVJssiaYG0SCRJ2CBBCiAJJIAEkHSC9cEbnQggrSmRmT408nHfeeTxGkHWAvckEQO0kVpPiHCIFRehlIAIebbIFgbbzD0/gXKgIiBlHD/rgCeAJAmQtgRhkxQkFTnYJC0gJKkUV0gyRWa3TJ2UqSSZabJT0sqAnZAWAL0jVrMoMFWSqrKYf8R55HGBI3teUs6O2NFsSEmMof7p3C+Rx9A4rS2EPB/UUa5CCj06qHO8cN6NIY88XivIXmqQ06SlQ1UrKSvt53EuGE7SwCHfAzrNJ9c9y/mcf9B55HGhI595NI888sgjj2Eh79mSRx555JHHsJAnjDzyyCOPPIaF/w+3p0df7Z3VHgAAAABJRU5ErkJggg==;" vertex="1" parent="1">
          <mxGeometry x="281.16999999999996" y="246.76999999999998" width="187.65" height="66.46" as="geometry" />
        </mxCell>
        <mxCell id="QePtxtIfvmYU2IRXPI9a-737" value="" style="shape=image;verticalLabelPosition=bottom;labelBackgroundColor=default;verticalAlign=top;aspect=fixed;imageAspect=0;image=data:image/png,iVBORw0KGgoAAAANSUhEUgAAAY8AAACQCAIAAAB/D3BKAAAACXBIWXMAAA7EAAAOxAGVKw4bAAAgAElEQVR4nO29eXAc13X/e+7tbXYMMNgIgMS+EAQIENwpUSRFypRlSaQl2bJl0ZKln6P8nu2S85zyqyT1fnHZlbzUc5zEjl/Kzs9WvFuOtcuyZJkWJVHcQIIEQBD7vmMwg2XWXu99fwxFU+Bgm54BBmB/iqWCMNO3zzSmv33uueeciyilYGBgYJD04NU2wMDAwGBJGGplYGCwNjDUysDAYG1gqJWBgcHawFArAwODtQG72gbcTlACFAAhQGi1TTEwWHvEqlaaRjWVKjJQCgyDGBYxLGBs3IcfgVKqqVQMU0WmskjFEFVVxHKIF4DlECdgswXxgnHRDAyWwnLUilIgGpFlKknEP01809rkGNVUbLVjRyq2p2BbCjKZMS8Ac9u7bJRQRSHhkDY1ofR2kIlhbWyAeCdAFoETkM2BnelMTj5bXMnlFmCrHQkmQMas3MBgIdBSs0MppbKkjg9LLRfV1stktIdKYcDM9VcJQTyPsjZxlTuE2r3cxuLber5DKfHPSp1X5Yun1NZLQMmHjicGiFwTCoRQTQOq4fRcfu89pj2HGbvjz9fTwMDgFpaqVspQr3j2D0rTORBDgBAAgnkORFYbu3mn6eAnuA2bbkPB0man5dYG6eI7ZKALblwhBB/q1E3cuIBURakbzMc+L5RvRSbLSllqYLDGWFytqBQOX3hHvvAO8YyCogLMc+/BTbcfxyGrnaveY9p/L5uaCcxt4TJQMSxduyRdfJcM91IxBIQAwBL0mgKlAAg5UoSDx4TaOxlnauKNNTBYeyyiVsQ/Gzr5otJ0nvpngJLrXtWiRMY0W3BKGrtlp2nnQTY9G/B6jstIrVek+j9pQz004ANFBliKTt0EpQAU2VOEg8dM2+/CDmeC7DQwWLsspFZUEoO//5Vy+QMa9AEsPw5FCVCK7E6UkcVVbBeqdrFZOestNKNpcm+71PCuNtxHPGMgS7FcqAiUAtFQVq7pwAOmuv3IZI63rQYGa5uFFu/CZ99WGs/EKFUAgDAgoIEZOuuVvZPaUA9bupWvqGEzNsRub9JAJVEZHVDaG5XuZjLYA6oCCOta10MIMEPdo/KVczgtU6iojZ+xBgbrgXnUihBlsEc69zb1LyhVN/tl8wWzEAMsQ2en1JZ6bbRfG+3lymq4/DImLUOv7asElSV1ckzpvqZ0XNH6u2hgBrHc4j7j9WsV+e88lxQhAKQNdcpX69msPCY1Pb6WGxisaaKpFaVECodP/55OuQHmib9QCkQDjgeWA4RBVUCVAei89yFmgFLqGVOm3Fpfh1qxjavYxuXkY5tjDcWzqCJr0x5loEtpb9S6msm0B3Ec4oTFjyQaIAwmC+J5oIRK4rxzRoRBDGk91+RNpebdhxLxKQwM1ihR1Ipqqjo2pF6rB0LnlSqOx6ku5MrGthRgWBryk+lJOuOhAT/QeY5CCBgOKCXjQ/L4oNp5Va27kyvezGbmYrM12TWLEm1mSh0dkNuuqK2XiGccMQzil6BTAEAJcjhxRg7OzMN2J9U04p0gE4NkxgtiKMrkEbNkyq10NZtq9yLBFPePYmCwRommVpIoN1+AcBAYLsoRlIIgsKVbzYcfYrNykWAChEDTVK9baj4vXzxFJ8euO1lRQQgYFiglo73icI+SX8bvOcwXVzLO9OtDJR8k6NdmvFLDaaXpLJ1yA0KI45d6MKXI4RQOHhdq72BSUiLaRBVZGeoRz/5RbTkPsjxXsBACKUzcI+rEMLepJN6fxsBgrRJNrWRRabsMDBtFcCgBXmA373B8/qsf+T3DsJkb2LsfZHM2hV78MZ2aWCSOgxAwHGKADHWJg11K2VZhzxGueAu2ORCbNFU7lFJVpVIofP4d+ewf6NQEYLy8NU1KQeCtn/sqV1iO2D9LP+J4vmgzk5oZtjnlUy8By80Vd8zQcFAdGbxN1IpSqmlazE23EUKsjq8NIUTTtJgPZxgGJ/nMYL1wy99YU7UZLxnrnyccg3B2nv0z/zP6YJjhiyrJvY+Gfv4vaIl3NcMBgNbZFGy/zJTVmI88ImxOlrUwKoni1frwS/+bBnyIZQGzy0yhIsAL/J0P8sWVUee5TKrLvP9etbeVDHfPHRlhGvCrAx2w9259H2JtIIpie3u7KIqxHe50Ojdv3hzbsYQQt9vd19cX2+Ecx+Xk5OTk5MR2uMGymKtWRBK1sUEgWpTZHNFQiovbescC8yAkmNicfKaokvS3R59IRoXhEMORvo7gz/5ZLKgwHXxQKN+6vM8RV0jQL7c3iu+8Ssb6ARDihHlXPBcEmcyWu+5dICSHrXZh/8dDP/sO4m7pxCCLxOdd7hnXKL29vUePHo3Zt7r77rt/85vfxHasKIqvv/763/7t38Z2OELo2Wef/bu/+7vYDjdYFrf6VhoJBaO/l1JkNrMLV/8hhC1WJrdQ621FS58zRQakFCRR624JuUekokrTniN8UcUKR7JIOCh3X5MvntJ626gYBpg/M2NhKAWEkT0N2xwLvAtxHJu9EfG3hNIRAqLSkH/Z512bEEICgUA4HI7tcJ/PF/OpKaXhcNjj8cR2uMvlEoSlLbYY6OYWtaL0eoFbVBBzc/xlnvewyGydr+Z5wQMRAAJNo9MeteVCaKhLLq8T6u5gc/KXEdWOFSqJcm+73HxO62sjM16QRL3Znhgvvm6AUKTXFajKR62hgJgl5UasCyilsiyvthWxwHGcnpCZwbJY5oWmGp1zX0V700J6tyiR21uSyPiwEgiow11cSTVftYvNzkuUZmmq3N8lt1xU+1qJexTEEADSWyGEEGgaDS3yzKeEkMAsKFKUAkyGRSarLhvWDpEo+2pbYZDs3KJWLIttjuieEUJUVUlgsTtQlcm0R29vOYQiaVy0Z1r2jGujfWxpDV9axWRsWNy5WzqEKCP9ctdVtatZG+yGcAAAxa8rHqUBnzLcx+UWzOdhUUlUultBU4HhPipWFJnMOH09lCgZGMSLuWqFOB6nZaJb19QBAGEaCqr97bR2z7xujqaSGY822Ini0iUGIWA46p9VWy5po0PqYBdXUsUVVrBZuToHpqqqTXuUrqtKZ5PW20YDMx/qVDzDZFQMi6d/z37yC0gw3ypYVJHV0QGl8QwwzNxXKUVWG5tXGEdjDAzWOreoFcMyzjSUnkOnJ29ZVkcQDqodjXJHs1C1I8pghKhet9xykXrGgI3frC1SHT01oXrHtJ5WdXMdt7mW3VDApmXEkAFPVYXMTinDvUp3i3rlHPVPAcPCMlYElm42AlVVGs+G84qFLduZlLSb+3xRMawM9YjnTmojfVGknxKw2ti8ovhbZWCwZrllJogxtqWwm+uUM78HuOWZD0BnvOE3n8c2O+PKxhYbYAQAQCiRJW3KLTWelc+fXEbuwtLBDABDZ73yB28qTWf5HQe5yu2MKwtbbZg3AbOYW0Q0Eg6RoF/zjCudzUrTeTI5gnghnqo6FwQIQJHFl39MfF6+bCtOcSGWi5RhauNDUsP76tULUULplIJgZrI26nchDQzWE1Gi7EgwC1t3Kxf+CNotwXKEgBAy1hd47v8VDh3nCsuQYAZAVJHUiRG58azWdhmAJnBDBIQRx0M4KL3zinzuj+zWvVxZNZudh+0piOWBZRHDXF/LoyQSvAVVoapCArPKYLfa1aL1tpIpN+IFJKxIAymEgBLpzV8rF99nNhajlDRQFc09Qkb7aCgQfdWPaji3jK/euxLmGRisHaKpFcdxheVMSY3W1RilsBkhAIYGZsMv/lDkBORIA4RpyEfDQUAYRVoyJBqEES+AKiv1J5Wzb6LUTCanAGdvYjKycUoattgQLxAxTGWRTHu18SFtpI+MD9KQHxBGLLtCOnWztYKF+rxK00Sk5BthDHieBAVKgOGY3EK+sHxFjTQwSHqiZzAghjUfOR4YbIdwaJ6uVfi6V+Wfuf6LW1McEw3CiBOA4yEc1Lqval1NCqWUELixeQPCAHDd2wK0ChbOtXYJs05NZYoq+S07jd6hBgZzmMcPwpjLL2XLtgEvzJ/niQA+3Hl4NXsnRAzAgFlgOMQJH/4zIZZHLA+IWW0LlwylYLKypVV8Qdlqm2JgkHTMO2tDLGfafy+y2oHqSPVcMW6IZkS5EP7Ib+Kal5A4qKowRZu54iqjrZWBwa0sFGPi8orYzdvBYlsbgrXWoQRZ7dzmOnb+bFIDg9uZhdQK8YJp1904LdNQq5VAU9mKbVzRZmw2NkA1MIjCIut3XF4BW16D7E5DsBILpWBzclt2sBnZq22KgUHsEEIiPS3a2tr8fj/RUzJ8C4tVNWNG2LpXG+rVuprmbbhuoBuqKlzFNm5j8UpnVxgY6IAQIsuyKIozMzPT09Ozs7OTk5NDQ0N+v9/tdn/lK18pLi6OY2PVxXswcLkFbHElGR+gvpmEVKgYUIIsFmHbvtt2S66Y+/AZrCSRVhmiKIqiODs76/f7fT7f6Oiox+MZGxsbHBwcHR0dHBzs7u4GAJPJ9NnPfrawMJ61rkvoGMMwfNVObaxfbTq30PYQBrFBKZUlfscBNq9wqZvorC+MdjFJC6VUFEVFUURRDAaDwWBwZmZmdHTU6/V2dXX19vYODw+3t7cHg/P074w3S+pvxeXkq+V12lAf9Y6vt63hVx8KQEx3fYKxp662JasDpdTwrZKTycnJtra2iYmJ/v7+q1evdnZ2Dg8Pj46OrpY9S+3GxxVVqEWb5YkhxK9TtYrcMLH1NdZ3Uv7QQ4wrC+LSY2cNQghRlEVbPBqsAt/85jeff/55rzdZ9gdYagCMTc/mKrfjnALQ1IQatFogZwbOKUT2NKAEyIpMTCgFoGCyWA4+gI3guoHBYiw5XI8xl1/KVe1ar6kM1Oel/mkmv5TbexRvLAFKQE10p3AKHM/feR/jTEv2raoNDJKAZdwkjMPJlVbhvBIg69G9IoSG/FrvNeId52rvMD34JFNWc12zEhFVoRQQxq5s8+5DwNzW2xAQQiRJWm0rDNYAy3mkMyybnc/V7EnI3bvqIAREo8GANtiltl6immq+5xHT8S8w5dsAAWhqnD81Jchi42rvYFIz4jns2iS+OYQG65XlPdUZu50rqVJyi8lI73r0CBAgADGkDXTScAgoMe04wG7IVwrLle4WMtQDsgQ4Sj/VZUMpsDzOKRDq7jDmgAYGS2SZisOwbFYOv/vu8H93oHWoVgAAgDBoGhkbkIM+IJp531F2wyZ2U6nccUXraiGTo6CpgPV9dkqQw8lt2cGmG3U2QAgx8q0MlsKy7zpssfOVdXJeIXGPxH2TmGQBIQBKfdPSqVeBENOuu4XNtdzGYimnSGm9qA12U9/09b5aMUApsByTU8Bv3hZvu9cklFIjg8FgKSx/GoIQY3cKdz8EgGA9xq8+BAFCIIni738t1p/SZqexzWHec7flgc/z+47i3EIwWSKt35c9MKUoLZPbXMdmGNsFrnkQQsgonl0pYpnRIMFkqtkjvfc6GR9c56XOCCOWlU6+iCxWoWYf43CyGRvYIw8pm+vED95Sr9XTUHB5V4BSwIjZVMJXbk+k3QmHUhqZwamqqqoqIURV1ZsndAghjDHDMAzDsCzLsmykuhVjHMcy11UnNrUihESumKIoNy5gJKc/MmDkKjEMw3Ecz/MMwxiyCLGpFQAgjjM/cCL4038GSVyfk8EbIAxEk95+IbIVEDZbAWNuYxHz4AmpsEJ869fUNw0UlipYRMM5+VxZDeNMS7Dd8SeSdC7LsqqqgUDA7/f7/X6PxxMpcJ2dnZ2dnb2xusfzvNlsttlsaWlpqampaWlpJpMJAFJTU61WK8dxERVjGCZyo67qJ0s4EXFXVTVy9WZmZgKBgNfrdbvdHo9namoqGAxG3oAQilw6s9nsdDozMjJyc3MzMjKsVqsgCCzLRsQrjrYtcP11/l0izzOdQcmIdkd+jjVajBmholbMK9b6O0DT1rN7BQAI08CM+M4r2Oq4se0rttrNuw5wJZtDr/5MbTkPwCxlsx+qqWxZtal6Z4ItjjORb+3k5GRDQ0N9fX17e/vFixd7e3tjGKq0tLSmpqagoKCoqKikpCQvL89sNvv9/nibnEREAnNut7ulpeXChQsdHR0XLlwYGhpaerSuoKBg+/btFRUV1dXVu3fvzsnJ4TguXq7W5ORkIBCI+lIoFIpZsCilXq93cHCQ43TtLupyuex2e0Sgda1tCfs/EZ4cobPT67+TDMPSiSHx9O8RL/Bl1dd/iRk2Lcv22JfDZ8qlP70AYmiRtUJVZooquZKta6uJVTAY/OCDD1599dXXX389EAgoiqJpWsxx8d7e3sHBQeZDMMapqanZ2et2bTQQCFy6dOm3v/3t22+/7fF4bly9ZXkcQ0NDY2Njb731FsuyZrO5srLy4YcfPn78eFZWlk4/a2Zm5mtf+9pbb70V9dVgMBhz4q4sy1/4whdYVm/mwPe///2Pf/zjKSkpoFetyqrlkq3qtXqQxJXYRnA1QYBZrfuqlJHNZGz4cyMqjLHZat57GNsd4skXqWfs+hY70cfAXNUOrqhirbiiHo/n1KlT//3f/33p0qWZmZnZ2Vn9U7Zbpwazs7OrWNafUC5evPjDH/7wnXfemZ6e9vv9Mc+JIhctIhw+n292dratre3HP/7xM888c+zYsaysrJgtFEVxeno6EXXLlNLZ2Vn94+Tk5ERiCKBTrZDJLOw4QEZ7ydjgeler67suq03nRIfTevjhm1smYKtdqNqFbQ7x1CtaX0f0uLsqM2W1XOFmbLauqNkx4ff733333d/85jeXL18eGRnx+XyJO5emaeFwOHHjrxYvvvjiT3/60zNnzkxNTcVxWEppOBwOh8Nut/vb3/724ODg448/XlFREdtoPp9PlhNdDxsjCKH09HSn03nDf9Trp3H5pXJxFZmdgXDgNhAsTAOzytVLYna+aevum1/BVhtfWg0MI55+U+u8Cpr6EcGiFHgTV72b3bAp+R2rlpaWl19++Y033mhra0uoTq1jTp48+aMf/ejMmTOJC8lpmtbd3f2LX/zC5/M98cQT27fHssocDAaTNtkNY1xVVRVPtcJmi1Czl4wNar2tus3TzfV5Cv1zGlRkM8E4CgRiiHtYvnKGyytk0jI/8gov8CVVQKhIQev6iGBRVWHLa7jCcmyxxc2SBCDL8gcffPDb3/72zTffHBgYWG1z1iSU0ra2th/84Afnzp1bgdWDgYGBF198EQBYlq2pqVnu4eFwWFWTtEkBxriiosJisdxYT4hD9Qy3qUQpriTuERqYXTX3ihIgBBgGBAsSzMBGVugoyAqVQiCFgML1LVF1ghDIkjbQKTVfsNx135xOqojl+JJKoESkROtuub5aSikSTPy2O5n0rGR2rMLh8BtvvPGLX/zi9OnT8Z283D5omjY2Nvb973//5MmTcYnaLIXR0dFXXnnF4XBkZGTk5OQs61hZlpO2pBwhVFxcfPOSYhzUCvECv7lOHe7VWhtWIfUq0m/LbMMpaSgtHadl45Q0xAmAMVBKw0HimyKeMTrjJbNTIIkAS86Nmg+E6eyU3HiWL69lN2yc+yJv4kurATOiqmhdVwEzoClMeS1fnLwRK0ppMBh89dVXv/vd7169elUUxdW2aE2iadro6OiPfvSjn/zkJysciRsaGnrllVc2btz4hS98gef5pR8oy3LSFmlGfKubP058KpO5jcVs8RYy0EVD/hV1r4gGggmnpjPFVfzmOjanAFvt6KN/LaoqxDej9HXI7ZfJcA+Z8YIk6tpuHiGgGpkcERvet977KLpljRbxAl9cCUQLeceJZwIJgrD3HmxLifF0CYZSGgqFXnvttb/+6792u91J+6RNcgghk5OTL7zwwje/+c1VMeDatWu/+MUv9u3bV11dvfi7P8Tj8STtEgfGuKio6GbfKk7KwjB8aTVTWr1yfZApBUqB59nN2y2f/j9sD35e2LKdSXWhWx4siOWYtAzT9jvtj/yF+dhTbMV2EEzXuwzHDoZwWGk+p02ORS0VRLzAFVaYjjyCWMyU1/HFm5Fg0nG6BCKK4sWLF0+cODE+Pm5IVcz4/f733nvvn/7pn1bRhp6enl/96lfLippPTEyEQqHEmRQzCCGLxXJz0AriplYA3MYirnwrWGwr0Qo5ojUcZ3rgSftn/idfWL6Uva2QYBIqamwPP206+qhewYo0aZjxhs/8Yb4m7thiE6p28nc/Yj54f9JKlaqqra2tX/ziFw2d0oMkSefPn/+Hf/gHt9u9imaMjY298cYb/f39Sz9kcnIyOX0rQRDq6urS0tJuriqN56yNK6jgtu6l8gp0raXIarM9/TeWfUeWmxeObQ7zvo9ZHnsWBCvoWQ1BGFRVOf+26hmfV7AcTtt9n+GLKxGrq/ggcXR3d3/729/u6elZbUPWNqdPn/7GN77R0tKy2obAxMTET37yk6W/f3x8PDl9K5Zlc3Nz5xQYxVOt2IwNXGUdSnEl1r0iGnK6LJ/5MldUEdvmhojjhdItlse+BFaHXlMJCb31AgnP//fG8ViITAwjIyORepp1X1ScOCYmJr7xjW889thjly9fTobL6PF4XnzxxWAwuERjknYmyHFcaWnpnHYdcY2IMwybvZHbsoMmLt+MqCglld97lC+pit1hQQgJZr6wwnT0UzH2qPpwHACkNn2gDPWsiEcZT0RRPHPmzH/+538m55d1raBp2vT09OTkZJJkhBNCvF7vyZMnl5hFFQqFkjM71GQy7dq1a04VZJy7FWNHGltcqdT/Kb7DXodS4ExMQYVp5wG9kSCEsMUmVO9WWhq0vlYgJEYPCAFVVPG93zHp2WurbXFPT8+pU6cSkQKakpLicrkcDkek7cmcEvzIEmQoFAoEAm63e2ZmJu4G3OYEg8Gf/exnR44cWUrzg6Rt18OybF5e3pw+E/FWK8HEZuWizDw6ORr/PeiJitM38rX7GKdriUdQVdVmPJrHTXxTEY8PCQLjTGfSsxlnGpOSKtzxsdBID4gxBxoRYjmts0np78RWBzZbYh1nRQkGg2fOnHnrrbfikmtjMpm2bNmyc+fO3Nxck8nkcDicTmekH1Okj9XNb6aUyrIsSVIwGJyenp6amvJ6vR0dHa+//rp+S1YdlmULCwtLS0sjPaqsVqvdbnc4HBaLZc51UBRlfHzc7XaPjo52dXXFsa5bkqQzZ85MT0+bzeaFGx9KklRQUODz+aI2n+F5vre3d3p6OrZkd4SQ0+k0m2NpNxLJXXC5XIlVK8AY21OZ/DJlbCDOe9BTCizPbCzmi7cs6e2yJPd2qAMd2sQw9U3TUIBqKgAglkNWB3ZlMLnFfGkVX1olpm8gYwNAtBgzsBCiiiTXn2Kz83BeUSwjrDidnZ3vv//+shaPomK328vLy/fv379v374tW7ZkZmZGOsZF2uwt0IDpRt9RSZJmZ2cvXLiwdtUqJSWlqKiotLQ0Ozs70jyvoKCA4zhBEMxms8VisdlsJpNpjlqpqhrpwzc5Odnd3X3t2rXLly9funRJvz2EkKmpqe7u7vT09BvdC6KCMT5x4sTU1FTUvxTHcT/4wQ/Onj0bW/0QwzAnTpwoKyvDGC/XfcMYR9zzBKsVABJMbF6RQgkAjWdbUUpQaiazsQTbF0mzpKqiecal1ga1rUkb7oJQEBDcSAelQIFSDTOqo1Eb7jHt/RiTX0Y8YyCGY08XZXmtu0XpbWNSM7DVHuMoK4WmaefPn79w4YLOcXJycg4cOPDggw/u378/Nzd3WcdGOvlyHBfpkLmm54M7dux48sknKysrc3Nz09PTAWCJPadSUlKKi4sBQJbl0dHRM2fOvPzyy6dPn9afBkEpra+vr62tXVitOI47cuTIAm84efJkzALKsuzx48f37t3L83xsk81bL2MC1IoXmIwNiOPjK1ZANJyezebkL/wuKonKSJ9U/45y8T1QFWBYiB6Mp9TnVc6/TcMh7MpGDEP1mIsQaIrSfIHJ2iiUViX5FoETExOXLl3q7u7WM0hOTs6xY8eeeuqpHTt2xMuwNcquXbsef/xxPSPwPF9QUJCbm7tjx44f/vCHL7zwwsjIiJ4MOELIBx988PjjjzudTj2G6SSSfxDHNvzxv68Qw2K7E9lS4zsspRSnpDFpCzUeo6qqDPeK774mn3krshHW/LFzBIgBhlMuv692NlFV0ZtngFmtt1Xpuab5V6iWNWYaGhq6urr0jOBwOB544IG//Mu/NKQqjnAcV15e/vd///dPPPHEsmr9boVS2tzcHAgEkjOCHjMJ8AIwRoIA8c7eRiyHzHa8oGereSfE8yeVK2cQb16a+iDEm8hoH0iSXj8QISCa2n5FGeiEJM4Lp5ReunRJp1rt2bPn05/+9NatW+NllcENHA7H1772tby8PD0tjCmlAwMD4+PjSZJXES8SoFYIIU5AvACgsxbvozAssAv+/QiRms+rLRcRt8znUlw6yQAAw5HhPjW53atgMNjV1TU+Ph7zCBzHHT9+fM+ePXG0yuAGCCG73f43f/M3kRCYHrxeb3LmUsVMYiIsCAG3eOHeMqB00RxOqfOq0n4FVrgJxBwoUbuuyZ1XV82AxWhra9MZxH3iiSfuuusui2Vt5GqsRTDGH//4x+12vcs1ydy7KjYSc2MTQkN+AB1dWeaAEBAC2kKXXmlrIEM9wMR/3WAZYEzGB5X2y9pM/Nvyx4VIBo2eEQ4dOlRYWBgvewxuBSGUmZlZU1OjU7AGBgaSs2I5ZhKgVpRSVYl77IaqCpVDVI3u2ZKAj0y7QQqvdm94BJRog11Sc/2qmjEvp0+f1pNmVVNTU1hYGFvKn8HSYRjmwIEDaWm6tsjt7e011GoxCKFiiIYD8e0jihBQ38x8PovqHiVJEi1CmE5NKm2X1ImR1TZlLpqmDQ4O6unAe/jw4Q0bNhhbnK8AFRUVNpuuLv4ej8eIsi8C1VQS9MP1mWD8wAzxuNWxwagvkhkvSFJSJDohBEQjYwNS0+v4K8EAAB74SURBVLnVNmUubrfb5/PpqbaprKx0OBxxNMlgPsrKynSqlc/nS9odImIjAWolS5p7lMb9MiFMpsa1kT6qRHlckICfKvJqTwM/BGPq9ymtl+bT1tViYmJCZ8/1TZs2GfH1lSErK0tn1lU4HE7anuuxEf/bm4ghtb8L6dvwOgoIQTiojfTNIwFkKeuGKwUCSoh7RKx/d7Ut+QjT09M6pwbp6emCENfVXoN5YFk2JSVFj2DJsmxkhy4IJcQ/qw12JmRtjmHJxLDUeI7e0jIBW1MQzyeNWgEAAjGsNJ9TPePJY9Xo6KiesGt6ejrP80bQamVACBUUFOiZd2uaZqjVQhBR1CaGyeRIQiZlCFPflNp2Se5rnyMB2JkGgmklWsIvEYQAEA36xNNv0RXbWWMx+vv7g8FgzIffcccdOiMpBkuHYZjc3Fw9F1zTNCPfaiG0qUmlvSmBj1/MEs+E+M6r2oz3ZsFiMzagZGt+gBDIslx/UvNMzNe4fYUZHx/XE7eqqqoychdWErvdrmcmGA6HFUVZT4IVV7XSVHW0X20+C6yu6OBCIASaqvVe8//8X6kUvlHZgx1O7EwHTkieadd1xHDo7QUbt68gwWBQzyJRSkqKnuI1g+VitVqX0v/z9iGeaqUM9ytX6xO+pSDCQIEMds/+7/9Hm5m6kYbKV+/B+aVRVwxXDYQAYbXxdJI0bg8EAnoKxxZusGeQbFitVp7n49iwZdWJ3yfRNGWgQ71WD0zinwYIASFksMv3//2v8IVTJBQAAL6wnKvYhhxpSTLtug4C0DTp/J9IwLfapkAoFNKzpG2z2dbTV3/dgxBaZ0+XuK3cyX0dStsVUJUETgNvBiHQNOp1i2/9Sr56ntu8nS+t4iu2kRmvculdUHT3q4obCBhObWtQtu7GFisyrVqyUjgcliRJTxTDZrMZM8E1BMuyhlpFgYRDcmeT1t+xEo7VDRACADo7rYWukolhpfkccrpowI84gSpynDPp9YAQiGGp4X0meyO3WO/TxKFpmiiKetTKarUavtUaYp1NAyFeaqUMdGm9rRAOrKhaRWBY0DQ65damJ4EXgOFAU5JIqiIwrNZzTelrZ5wubFmdJABFUXTOBA3HaoWRJEnP38tisawztYrDhyGhoNJ+RRsdXPaWXPFyUxECzADCIMsQDoIsJ8008EMQgnBQab6gjg+vlgmqqupseCSK4jrLNkxywuGwnjVch8OxzpYU46BWykCn2tcG4cCyM0LZ+bZ4iBWErv9LQhgu0rg9GcLtsREIBJKw7gxjvF6dPp0bKTudTpZd1XZv8UavWlExJDedJ+7RWDQCYWRNAYaJZ0PkpAUhkEWl5aLS35l0SWFLIzl9K4ZhdFb/JieU0pmZGUmKPfElIyNjnV0ZvWol93dqA+0QDsZSaiOFcVo6sqcCw67RG3h5sDzpb5c7G0kwlu0k9YMx1rNIFAqF1lNidJKjadro6KieSqnI1tlxNGnV0aVWVFWlC++QaU/Mm8jTUJCtqEPXd4q/DQQLIa27VWpvXHl1RgiZzWY9kyZFUZLQt1rHDA0NxbZPcgSXy2XErf6M3N2i9bWBJMYYKkJYG+zEKalc7X6UlpHwJPhkgOHIWL/S0UjCsT8zY8NkMulcIZqcnFxne6gYrC10fX3Fd1+noeUH128C8bx86V2uoJTfcwQ500FNprqZRIHIULfUeH6FzyoIgsVi0eNbtba26mzmZ7B0JicndTYjS0tLM3wrAAAgmtTSoA11g6rqWoNDmLpHlJ5rfNlW4eCDKCN3/QsWwsQzobRd0qYmV/K0LMtGdvqOeYTLly+HQklRnn07MDIyEvOzASHkcrmys7ONKDsAAFWV8B9+A6L+7y4CBErjWW3aI2y7UzjwAM4tSIYC4ASCEBBNG+4TG1e0cbv+uJXH41lnfb6TmfHxcT0Lgi6Xy2q1rrPcjljUikqieOU8GekFGo8MT8TQqQmltYGGg6aaPcLBY2z5VlDldb1KiKh/Wrm20smiVqtVTwJOZJXKmAyuDHp2WkYIbdmyZZ0tCEIsakUpCcxK770GEKf6FoQAkNpxRe5sRharULXTdPBBduueiA8SjxMkH5GS7IkR8fIHK3la/cnN3d3delapDJaOngcDxnjPnj3rb7+PZasVCQflrhZtsAsQjls5HmbotEftalbHh7HFxpfXmI88zO24CzlSgWrr08lCmIZDaku9OjGyYqkbLpdLZyCjsbFxZmYmXvYYLEBDQ0PMOz8ihGpra9fffh/LVCuiaZ5x6fxJFPeMfobVhrrllnoSDiGO5zYVWz/xOL/3Yzg7HzAGStZbNhZCQAnxjov1p2ClylmysrJ0zg7OnDkzMTFh5IgmFErpyMhIY2NjzG4sQqioqGjVQ+xx38ZieWpFgn6lt430t8e/1wLCdMartF9RBjqBUkAYO5zWez9t+tijTGE5mG0AaL05WQiBqigN76mT4ysjWBs2bNDZWL29vb27u1tPgrXBomia9vzzz/t8MdaTRrafyMzMXN0Qe6RyKL4PtuWoFSHq+LB85Uyi+rFglowOShdO3bxHvKl2t/XRL/G7D6O0DMDrTLAQUKCz3vDpN4kU+8ZZS0e/WgHA+++/39/fHw9zDKKgadrIyMh3vvMdr9cb2whWq/XEiRNxcaz0dB+llLa3t8d3a/tlqJXmn1V6Wkl/e0L2CgQAhECRtP528fIZuEmS2fQs24MnLA8/wxRXAUS2OF0vmoUQIEY+9ZI2412BJYWCggKr1apzkOeff76hoSGpktrXTYdMSqnX6/3Hf/zHqampmL0Sk8l09913x6X7gp76B0LItWvX9CRh3MoyTFEGu5TGs4ntx4IZOuuV60+q7pE5rwjlVfYTXzUdfxo5nFSWkmjrQJ0gQJwQ/uNL2uxUok+VnZ2tf1U7HA7/4Q9/uHLlSlxM0g/LsusmnDw1NfXLX/7yueee03OTC4KwZ8+euEwD9fScIYRcvnx5amoqjl2GlqpW2oxX7blGJoYAJ7pjDiJed/B3v5y7ew3C2Go37z5ofeKv+TvvA0CgJdHjXQcIGE5tfF8d6U90WixCqKyszOVy6Rzntddee+mll0ZG5j5RVov14VuNjo4+99xz3/rWt/Sk4GZlZT399NPx2lLbZrPpUavOzs7GxsY4RjmXqlZKT6va0QwQv4af84EQKLLW1xZ69425kyOEkGDmNhZZjnzS/NhX8KYyqkjrYbkQIapR8dyfVM94ok+1a9euvLw8nYOEQqGf/OQn//qv/9rb26vfJEmSJidXtAgp2SCEdHR0/Md//Md3v/vd6elpPUOlpqbec8898ZJvQRD0VMIrivLd7363o6NjWe6VpmmBQGBiYuL8+fM///nP3W73jUnxkoRT87qVrqvEnZj94qMSDslnfs8VlnMFpeij/UURyzFpmYLFzqSmyy2XlMunqW8qsnPfCtmWABDLad3NSt+2RDdu37JlS2Zmpv5xJiYmfv3rX4+Pj99///27du3KyclZ1hxTluWZmZnBwcGOjo6mpqbTp0/rN2m1CAaDExMTLMvabLZlzUk1TfP7/d3d3efOnXvvvffq6+t1uqtOp3P79u1VVVV6BrkZh8Ohc0bZ1NT0ve9974knntixY4fD4ZijfeFwWJZlWZb9fr/b7R4ZGXG73R6Pp7+/f3h4OBgMZmVlHThw4Mb7l6RWcmez2tcORIu5j9XyQAgopbNT4bd+jR/+IpuZC3MuGULYbOGLNjOp6UzOJqXlktrZBOEAYDZJ2xwvCkIghZWr9WxOAV9YnrjzFBcXp6WlxWWo0dHR3/3udx0dHSUlJeXl5aWlpaWlpRkZGSzL8jwvCALHcQzDUEplWVYUJRwOB4PBwcHByPeyt7c38vPo6Oj4eMKdysRx8uRJj8djsVg2btzocrlYlnU6nS6Xy2QyIYQ4jjOZTCaTiWVZQkggEPD5fH6/3+v1jo2N9fX1DQ4O9vX1DQ0N6Z8x5eTk3HfffQ6HIy6fCwDy8/N1LiKLovjmm28ODw9v3bp106ZNDoeDZdnI9kuiKPp8Po/HEwgEwuGwz+ebmZkJBALBYHB6etrn87Es+4lPfILjuBsat7haad4JpbOZeidW1HlBCBCjdbeE333NfPghNj0bbvVIEWLSMs0pLjYjR87NVzubtZE+CAfXqmZhVhvoULpbWFcWdjgTdBKHw1FbW3v27NmhoSH9o83Ozl66dKmxsTE9PT03Nzc/Pz8tLY1hGI7jeJ63WCxms1lVVZ/PpyiKJEnhcHhsbMzr9Xo8Ho/Hsz46OrS2tra2tvI873K57HY7wzB2u93pdAqCgBCKLALwPB9Rq3A4HAgEAoHAzMyM1+udnJyMV92l3W6vra292RPRT15ent1uxxjrSZvyer3vvvtuQ0ODy+WK9CyilIqiKMuyKIp+v3+BDtqRh9+N/11craTmC9pAJ2jqCjlWN4NZ5dJ7yJZivuNeJi0j+nsYhisoY3Py5U2l8rVLWk8r8YyBIgFi1phmRfbFabvM5hYIm7cl7tlw8ODBM2fOxEWtIqiqOj4+Pj4+3tDQcPPvBUEwmUyqqt4O2aSyLI+NjY2Nja2WAUVFRUePHs3NzY3jmC6XKz8/v6WlRX9xqN/vX+4gkb43N09FF7kltGmP3FJPpydXQarg+g7y8rk/Ss3niW+h8jTEC0JFrfXeR033PMJurkOu7Ov1OmsrmxSzZKhH6WrRfDEWiC2FysrK6urqOM4X5kOSpNnZ2dtBqladlJSUvXv3Hj58OL7D2my2mpoa/YvIsYExLigouLkOf0G1Ipp48T3qnVhNJwUzEPJL7/9ebDpPAr6F1Qdb7aZt+2yP/IXp6KNMQTmy2gHBWhIshEAW1e5rSm8bJKwWz+Fw7N69e+vWrQkaf1nwPL9hw4by8nL9Sfa3LRjjurq6+++/P76OVYTy8nKnM1FxiYWJVDsuVa20aa9y+T3qm17l5TaGI54x6b3XxcsfkFBg0XwFbE8x7zxgf/r/Eo48gtKzgWMB1o5mMRwZ6ZVbL2n+BLpXe/bsOXDgwKonVTIMU1hY+Mwzz/zbv/1beXkC1xbWN2lpaUePHj1y5EgiBq+srMzKylqVPZ8xxrm5uUubCVIaPvdH4l+0tJJ++C+BII6nkyPSu6+JF9+lS0vzxWar5a77Ur7yD/yBY8ju/LBkZxWhAAB0MTMQAkK0wS752qXEmZKVlbV///7du3cn7hRLISMj4+GHH/7617++bdu2e+65J7ZB1vHup0uBZdknn3zyscceS9Czp7i4uLKyMl7ryMsikjV2c+7YPGpFKfHPKk1nQQzN61ipCpVCNByk4QAVQ1QWE1vpxvJ0ZlL608vBN3+z1P34EMJWu/Weh+1/+b/4g8eQ3UFlaVU6/FFFpmIQiAoMA0CoHKaKNK9sMSydGJGvnk/otoM7d+68//77Ezf+ogiC8Mgjj3z1q1+NLPBXVlauojFrlxMnTnzuc59LxBwwAsuye/fuLSoqStD4C5w3JyfH5XLd7NZFXxOkmhY++0fqmwZKowStKKWKyFbv5Sq2MZkbEMeRgF/puaa2XCSTo4hPXH9VTIN++cJJMjVuue8xNnvj4kcghDiOzdhgufuYVrNHaj6vXP6ATI4iXlih6S0lVFW5urv46h1MejawPGiK6h5Tms+rLReBkuhmIKAzXrm71VSTKPfH6XTec889n//853/2s58l6BQL89hjjz3zzDMulwshZLVad+zYsSpmrGk++clPPvXUU5s3b07oTO3QoUNvvPFGfX194k5xK5G+N5H8iRu/jKZWlJCAX75yGqLW2VMCHG9++H/wxZXY7kS8gDCmqsptKlFKq+X6d5TGs4kSLISAUpBEte1yYGrCfP/nhfKtSxIdhsE2BzZbcIqLK61W2huVpvNkciThmkUpYGx+5Bm+rBqnpGFeiDS9YTJy2Zx8Oa9IeucVkMUoNiCGTLnlxrOJUyuMcXl5+YkTJzo7O8+fX+ntwj772c8+/fTTpaWlke8iwzCpqalFRUUDAwNxLIJd33zqU5/68pe/vG3btkTHH9PS0o4dO9bT0/PBByvXmJthmPT09Dlz/ChqRVVVHR+gnjGAW6oCKUFWB3/oQdO2O24uEEEMywgmbLEhhiGhAOluATYBfQspjbReQNYUtriKzcxdXqcthmWcadhmZzM2sIXlSvc19epFOj0BTCSbNN7rnpSAYBIOPmiquwNb7X++kgiw2YKFjYgXaDgkn3oZmCiJryCLxDtGJREJifJVzWbzzp07v/71r3/rW99ayZ4KDz300NNPP31zK96Ie3Xo0KFf/epX4fBKtPpa07As++yzz37qU5+qrq5egebrGOO77rprYGBgfHy8u7s70aeLwDBMVlbWnILHaGolS0rHVdDUue0WKAXBxJRsMe88FLWWDQkmLr9Mq7tLHOgCQuKc9xDRKWcGU7KFK9/K5ZfPmy+6IIjlGFcWTnGxuYXKxmK1v13tbKFTbqAaIBw3mykFzOKMXNPuI9gWLbMJY8aZLtTuVVrqqWcsSjobBZBFbXaKzcyJj0nRSElJOXz4sKIo3/ve9y5evBjf3mlRuffee7/4xS/u2rVrTqctQRD279//29/+1lCrBbDZbLt377733nuPHz+en5+/Ypubulyu+++/f3p6+r/+67/imFe8ACzLbty4cTG1opTKojrQEe3+Icjq4Mq3YXvKfOfAFhu3sUjOyCHjA4Di1FsmolOOVJxXzJVW82XV7IZNOodELMumZ7OuTK24Us4rUfrayHAv8U6AIsdJsygIJraoknHOu5iCWJZJzWCLtyju4SgnRUA1jfhnIZFqBQAOh+PYsWM8z//yl798++23Y26wuxQOHDjwpS99ad++fXa7fc5LLMvW1NTEpYdcHMnOzmZZdnJyMr5d5WLAZrOVlJTs27fvgQceOHTo0MpnnxQXFz/66KOiKD7//PODg4OJPh3HcYWFhXPicdHUSgzTyVEAFGUaKJgXUQqEkNmKM3PJaJ++XeuvGwNUQ/ZUnJnDllTzlXXshnwUx+cJwowry7zvHr6iRu68qnReJaN9ZNpzPZakR7MoRbzAbipZ5G0Mi9OzKZ1nFkoJlVdi8z5BEI4fP75hw4aMjIyGhobOzs64b2zDcdyuXbv+6q/+6uDBgzZbFMecYZj8/PycnByfz5cMe6zabLaqqqqDBw9ardaenp6xsbHJyUm32z08vKJbQKakpGRmZubk5JSVld1xxx379+9f+eW5CAih8vLyp556ymw2v/rqq42NjQk9Hcuyubm5S/GtJBr0R10KBIZZNIyCMAO87rzkSIjKZMUpTrZiu1C7l83JR3yinidMWqZ5z2G+olbuaFZaL2kjfTQwC5I+zcIYCYteB7pQzjqhVF25kPPu3btLSkref//91157rampaWhoyOPx6ByTYRiHw5GTk1NQUPCVr3zl0KFD8/ULxxjb7fZdu3YNDQ3FvDNVvMjJydm3b98TTzxx55132my22dnZoaGhjo6OlpaWCxcuhEKh2dnZSGVyIBCIu7YihLKystLS0lJTU8vKyqqrq7dt27Zly5aMjFhCH3GEYZjy8vJnn322pKTkueeeGxkZ6evri2PPa7PZnJaW5nQ67Xb7pk2bNmzYsHjcCgAAaJSoM0JLedpTooEcjv0mj2QhMRiZ7UzZNtOew9ym4sTp1M0wTpd59yFh8za5q0W6fJoMtFNJBk2J4mYuCkKgqdrMYnc7ITToiz42BWAYbNHbRn1ZuFyuT37ykwcPHmxoaHjppZdOnz4dDofD4XAoFFq6t2UymSKdnkwmk8vlqqysvO+++/bv35+dnb3wgQzD1NXVvfnmm8tSK0JIHPUCIVRQUPCZz3zmi1/8YkFBQeRucblcLpertrb205/+dCgUGhkZaW1t7enpaWpq6unp8fv9kSZNiqIoihLphSLL8lI2p8IY8zxvNptNJlOkx47JZOI47vDhw3V1dbW1tXl5eRaLZVVSyecjNTX1scceO3r06Guvvfbzn/98fHw8FAqFQqFwOCxJ0lKWdDHGJpPJYrFE+r6zLBvpMpSfn19XV1ddXV1aWlpQUHBrxU80tZpvgQxhKonqxAi3wASHUiqFiWcCUAzpxRQoRCI+TG6x6chDQnn1yhf9YIfTtP1OvrJO7m6R3ntD628D+qGGLkOzEJXCancr7D0SpddNBEqJGFS7r324KDn3ZcSxjCsrtk+hh9TU1CNHjtx9991er/fatWvXrl1ramp64403AIB8yI03I4QwxuhDAKC8vHznzp2RpldbtmxZek0sQqiuri4nJ2e5j2s9/UwQQmazOT09PfIzz/P//u//HpkARn2z1WotKysrKysDAE3TCCHBYHBoaGhgYGBycnJiYqKrq6u1tXV0dFRV1ci1opTeUK7I5QKAyNq8yWTKz8+vqKgoKSkpLCzMzc0tLi5OSUlJtvjdHDDGGRkZTz/99BNPPNHS0tLc3Nzc3NzS0tLf3+/z+SilN3/qyBfjxpcEAMxmc3l5eXV1dUlJicViyczMTEtLi3QHW1iX0dwnACWqe9T/7/83DfnnKgWlwDBMSVXKX/zdfPctFcPi1frQz/8Fccv3hogKlOLcYtPRT5m2rnJRyHU0Te5tC7/9gtbdBIQCwy1DsIiGbHb7s//EurKiHkXCIbntcuin3wE2WiROU/CmEuf/+W0d1scfr9c7MTERCAQij1CGYSwWi91ut1gsTqdT/xKVoiitra3L6nvFMIzL5SouLo7tjIQQt9vd19cHABzHlZeX22y2uHQKVlXV6/V6vd5QKBTR34hP4XA4IvqY5JIUG6qq+v3+qakpn88nSRKllOd5u92emprqcDh0Lg7colYA2syU/6f/QgY6AMFcJ4sSMJn5XYdtx5+MMhjRpI7m0MvP0cnR5XWY0RSgFBdVCvuOCuU1yGJFUW/gVUFTiSQqg93SmbfVzkYQQ8CwS/L4KAWMcfYm+//4G8bhnONhUUmUOhrDL/+EznqijEYpmG1c3Z32h5+O3yeJAzechRu/ueFVxWu2oqrqcjf41VkqSAi5MX9hWTaOe1KswOVKQm44Vjf7Vjd73zETRa1I0B86+bL8zkvRXAkKFMBk4rbeYT5ynE3LuKFKxD8rXa2Xzr5NRvujyNx8aCpQgjeW8jvu4su3MqkZSDAnYRc9Kksk6FdH+uTmerX9MpnxInYpmkUBYZyZKxx4gC+rxhYb4niqKqp7VGo6r1w5Tacmo18rVcZ5xZZjT/Jl1Qn5PAYGa5AoakVVRRnoCvzwW9G3O4+8XzDh9GxmQz5yZiAEVAxpkyNkbIgGZkHTliQ3lFBVYfKK2S07+LJqNnsTttrnDfEkB1QSNd+0OtqvtF5W2y6TGQ9iuUU0K/J4SUlFKWk4xYVMVhoOEO8E9U3RYAAgWiyMUmBZtnqP/VN/gUxG1ycDg+tEUSuglIQC/v/6Z62vLXpVM8D1tpwmCxJMQCloGpXEpS2fUSAEqIZcOVzVDq6shs3Jx3YnWjtzeCpL2pRbGehWOpu1nhbinUAcv5BmRbIxEAaOB8yApoIqA1CAedIjNAXnFJqOPGSquzNxn8LAYM0RfU0QmyzCHUdDY/0QjrSpvTWbAQMCkEQqhW8ctfjMiBKgBNlTmfIarqyGL97MOF2r00NZB4gX2OyNTFoWm1eoFm9Wupq1rms0OAsIz9NQAV1fIY3s54pgQWkjYE1hy2u54i2JMd/AYK0SzbcCAAAqiYGXfqw0nQFZjkMaASVACLKl4E3FbEm1ULUzoeVvKwchyviwfO2i2tumDXRCOKhrZ0NKAQFbvdt86BiXXxpXQw0M1jzzqhUAKCMDod/9TOtpBVXRdQcCBbMNp2exxVVC7T5uU4yLzcmMMtQjNZxW+9upZ4KG5glILQylAIDzS013Hzdt2b7mXE4Dg0SzkFoBgNTeJJ56VetvB0VZxkpfhIhOCWbsTGWKq4W6/Xx+6dx9TNcXcl+H1PC+1n2VzE6BJC4jCZ4SQBhn5Zk+9rCwZSfiEtBvx8BgjbOIWgGA3N0qvv87tesqyCLQpbkMEZ3CDLLYmPJa0757uLyi2+QOpJIo97ZJ5/+k9bTQcAgoWaR5VuT6Y4QzN5o+/qhQtjVxDa0MDNY0i6sVAGhT7vD5d5SLp+is58+t3KMuvX/4EyDElGw1Hz7OFZStTJVfUkGCfqn1svSnl8nE4J+LkG6+YPTD31AABrMVdZb7P8dm5CR5DoeBwSqyJLUCACBEGR0Qz/9JuXKaTruB4RDLAUKA0PXiPkqoqgHVkC2F3byD33aHULkNRa+Auz2glAR84Qun5AsnyVg/AALMRC4GpRDZzAJZHWx5renOj3MFpYjjb99rZWCwBJasVgCgqSQcIv4ZdWxQ6WjR3MN0xkPDftA0ZLKg1ExmwyYmr4jLL2FcWYgXbpOp30JQSiWRSKI6NqAOdJPpSTLtAUKQzYFT0pjMHDa/lElJQyZzElUaGRgkK8tRqwhEo7JMwiGqSFSVqSQBJYjjEW9CvIB4ExJMayjVc2WgskQlkWoqVRQAihgWMIt4Dgvm9b3sYGAQR5avVnOg5Hro3ZjFGBgYJBLdamVgYGCwIhgrUAYGBmuD/x9CFBtGW7dyZgAAAABJRU5ErkJggg==;" vertex="1" parent="1">
          <mxGeometry x="741.88" y="450" width="166.25" height="60" as="geometry" />
        </mxCell>
        <mxCell id="QePtxtIfvmYU2IRXPI9a-742" style="edgeStyle=orthogonalEdgeStyle;rounded=0;orthogonalLoop=1;jettySize=auto;html=1;exitX=0.5;exitY=0;exitDx=0;exitDy=0;entryX=0.592;entryY=1;entryDx=0;entryDy=0;entryPerimeter=0;strokeColor=#4284F3;" edge="1" parent="1" source="QePtxtIfvmYU2IRXPI9a-738" target="bN5QILnUEAshqW3xWmmT-754">
          <mxGeometry relative="1" as="geometry" />
        </mxCell>
      </root>
    </mxGraphModel>
  </diagram>
</mxfile>
